<svg width="67" height="98" viewBox="0 0 67 98" fill="none" xmlns="http://www.w3.org/2000/svg" class="eye"><g clip-path="url(#clip0_1_17192)"><path d="M32.3321 11.6535C32.332 12.0078 32.2615 12.3585 32.1247 12.6853C31.988 13.0121 31.7878 13.3085 31.5356 13.5573C31.03 14.0578 30.3473 14.3386 29.6358 14.3386C28.9244 14.3386 28.2417 14.0578 27.7361 13.5573C27.2292 13.0498 26.943 12.3628 26.9395 11.6456V2.70031C26.9416 1.98616 27.2257 1.30175 27.7299 0.796023C28.2341 0.290298 28.9177 0.0042032 29.6318 5.38267e-06C29.9862 -0.000707448 30.3372 0.0693871 30.6641 0.206174C30.991 0.34296 31.2873 0.543682 31.5356 0.796555C31.7876 1.04711 31.9877 1.34496 32.1244 1.67301C32.2611 2.00107 32.3317 2.35288 32.3321 2.70827V11.6535ZM52.2459 72.709C52.2735 72.3297 52.4437 71.9749 52.7223 71.7159C53.0008 71.4569 53.367 71.313 53.7474 71.313C54.1277 71.313 54.494 71.4569 54.7725 71.7159C55.051 71.9749 55.2212 72.3297 55.2489 72.709V79.5753C55.2639 79.7817 55.2363 79.9889 55.1676 80.1841C55.099 80.3793 54.9908 80.5583 54.8499 80.7098C54.709 80.8614 54.5384 80.9823 54.3487 81.0649C54.159 81.1476 53.9543 81.1902 53.7474 81.1902C53.5405 81.1902 53.3358 81.1476 53.1461 81.0649C52.9564 80.9823 52.7857 80.8614 52.6448 80.7098C52.5039 80.5583 52.3958 80.3793 52.3271 80.1841C52.2585 79.9889 52.2308 79.7817 52.2459 79.5753V72.709ZM43.3803 69.6742C43.4079 69.2949 43.5781 68.9401 43.8567 68.6811C44.1352 68.4221 44.5015 68.2781 44.8818 68.2781C45.2621 68.2781 45.6284 68.4221 45.9069 68.6811C46.1854 68.9401 46.3556 69.2949 46.3833 69.6742V79.5753C46.3983 79.7817 46.3707 79.9889 46.302 80.1841C46.2334 80.3793 46.1252 80.5583 45.9843 80.7098C45.8434 80.8614 45.6728 80.9823 45.4831 81.0649C45.2934 81.1476 45.0887 81.1902 44.8818 81.1902C44.6749 81.1902 44.4702 81.1476 44.2805 81.0649C44.0908 80.9823 43.9201 80.8614 43.7792 80.7098C43.6383 80.5583 43.5302 80.3793 43.4616 80.1841C43.3929 79.9889 43.3652 79.7817 43.3803 79.5753V69.6742ZM21.0769 63.5965C20.9776 63.5458 20.8841 63.4844 20.7981 63.4133C18.0155 61.1617 15.2435 58.8969 12.4821 56.6187C11.6634 55.9207 10.6876 55.4315 9.63846 55.1929C9.11159 55.063 8.55843 55.0879 8.04536 55.2646C7.84744 55.3456 7.66786 55.4657 7.51733 55.6176C7.36679 55.7695 7.24838 55.9501 7.16915 56.1488C6.85804 56.9712 6.74877 57.8562 6.85054 58.7296C6.96517 59.8336 7.26403 60.9106 7.7347 61.9158C8.36524 63.3078 9.14512 64.6272 10.0606 65.8507L24.1436 87.1505C24.2983 87.3909 24.3963 87.6632 24.4304 87.947C24.5456 89.7353 25.0542 91.476 25.9199 93.0449C26.1249 93.4051 26.4233 93.7032 26.7836 93.9079C27.1439 94.1126 27.5528 94.2163 27.9671 94.2079C35.136 94.2079 42.7988 93.9371 49.8961 94.2079C51.2341 94.1929 52.5364 93.7736 53.6319 93.0051C55.052 91.9472 56.2192 90.5868 57.0491 89.0224L57.3199 88.5683C60.0282 83.8926 62.6648 79.3523 62.8958 73.9676L62.8081 67.7067V67.4438V65.9782C62.8559 61.406 62.9356 54.3964 59.1281 53.7113H56.6667C56.7384 55.6708 56.6667 57.6941 56.5234 59.5261C56.4596 60.6095 56.4039 61.6211 56.4039 62.5451C56.4039 63.0331 56.21 63.5011 55.8649 63.8462C55.5199 64.1912 55.0519 64.3851 54.5638 64.3851C54.0758 64.3851 53.6078 64.1912 53.2627 63.8462C52.9177 63.5011 52.7238 63.0331 52.7238 62.5451C52.7238 61.6689 52.7875 60.5378 52.8592 59.3589C53.1141 54.7946 53.4566 48.701 50.2784 48.0957H47.8888C47.733 48.0977 47.5776 48.0789 47.4268 48.0399C47.5245 50.2411 47.4899 52.4462 47.3232 54.6433C47.2675 55.7266 47.2037 56.7382 47.2037 57.6622C47.2203 57.9135 47.1851 58.1655 47.1003 58.4026C47.0155 58.6398 46.883 58.857 46.7109 59.0408C46.5388 59.2246 46.3307 59.3712 46.0997 59.4714C45.8687 59.5716 45.6195 59.6232 45.3677 59.6232C45.1159 59.6232 44.8667 59.5716 44.6357 59.4714C44.4046 59.3712 44.1966 59.2246 44.0245 59.0408C43.8524 58.857 43.7198 58.6398 43.635 58.4026C43.5503 58.1655 43.5151 57.9135 43.5316 57.6622C43.5316 56.786 43.5954 55.6549 43.6591 54.476C43.9219 49.9118 44.2645 43.8182 41.0783 43.2128H38.6886C38.527 43.2159 38.3658 43.1945 38.2107 43.1491V52.5723C38.2272 52.8236 38.1921 53.0756 38.1073 53.3127C38.0225 53.5498 37.8899 53.767 37.7178 53.9509C37.5457 54.1347 37.3377 54.2812 37.1067 54.3814C36.8756 54.4816 36.6265 54.5333 36.3746 54.5333C36.1228 54.5333 35.8737 54.4816 35.6426 54.3814C35.4116 54.2812 35.2036 54.1347 35.0314 53.9509C34.8593 53.767 34.7268 53.5498 34.642 53.3127C34.5572 53.0756 34.522 52.8236 34.5386 52.5723V33.4551C34.5386 30.2689 33.2323 28.2377 31.5675 27.3933C30.9877 27.0979 30.3478 26.9399 29.6972 26.9316C29.0466 26.9233 28.4028 27.065 27.8157 27.3456L27.7361 27.3933C26.0872 28.1899 24.7968 30.253 24.7968 33.5268V66.9818C24.7968 67.4698 24.6029 67.9379 24.2579 68.283C23.9128 68.628 23.4448 68.8219 22.9568 68.8219C22.4688 68.8219 22.0007 68.628 21.6557 68.283C21.3106 67.9379 21.1167 67.4698 21.1167 66.9818V63.5965H21.0769ZM56.2366 50.0552C56.3953 50.0139 56.5585 49.9925 56.7225 49.9914H59.2635C59.4056 49.9912 59.5472 50.0072 59.6857 50.0392C66.6395 51.1544 66.5439 60.1156 66.4723 65.9702C66.4723 68.6785 66.5838 71.3708 66.6156 74.0711C66.305 80.3718 63.4294 85.3025 60.5061 90.3765L60.2512 90.8146C59.1621 92.8652 57.6269 94.6454 55.7587 96.024C54.0549 97.2139 52.0299 97.8584 49.9518 97.872H28.0149C26.9889 97.9067 25.9724 97.6665 25.0705 97.1763C24.1686 96.6861 23.4141 95.9638 22.8851 95.0841C21.7519 93.1673 21.0556 91.0241 20.8459 88.8073L7.12136 68.0413C6.04071 66.5955 5.12184 65.0355 4.38123 63.3894C3.73046 61.9875 3.32626 60.4839 3.18641 58.9447C3.04536 57.4752 3.26406 55.9934 3.82365 54.6274C4.3629 53.3642 5.3792 52.3651 6.6514 51.8474C7.8331 51.3964 9.1218 51.3049 10.3554 51.5845C12.0003 51.951 13.533 52.7078 14.824 53.791L21.0689 58.9447V33.5268C21.0689 28.6678 23.2435 25.5613 26.0235 24.1116L26.143 24.0638C27.2166 23.5379 28.3965 23.2654 29.592 23.2672C30.8343 23.2685 32.0591 23.5604 33.1685 24.1195C35.9724 25.5374 38.1629 28.6758 38.1629 33.4551V39.5089C38.3189 39.4676 38.4795 39.4462 38.6408 39.4451H41.1818C41.3239 39.4449 41.4656 39.4609 41.604 39.4929C44.6468 39.9788 46.1682 42.01 46.8851 44.6466C47.177 44.4581 47.5174 44.3584 47.8649 44.3598H50.3979C50.54 44.3591 50.6817 44.3751 50.8201 44.4076C54.062 44.9254 55.5994 47.1876 56.2286 50.0711L56.2366 50.0552ZM11.6537 29.4723C12.0055 29.4733 12.3536 29.5442 12.6777 29.681C13.0018 29.8177 13.2954 30.0176 13.5415 30.2689C13.9196 30.6461 14.1774 31.1269 14.2822 31.6506C14.3871 32.1742 14.3343 32.7173 14.1305 33.2109C13.9267 33.7046 13.5811 34.1267 13.1374 34.424C12.6937 34.7212 12.1719 34.8802 11.6378 34.8809H2.70051C2.34626 34.8807 1.99557 34.8102 1.66878 34.6735C1.34198 34.5368 1.04558 34.3365 0.796759 34.0844C0.4225 33.7057 0.168143 33.2252 0.0654795 32.7028C-0.0371835 32.1804 0.0164018 31.6393 0.219538 31.1472C0.422674 30.655 0.76635 30.2337 1.20761 29.9358C1.64887 29.638 2.16814 29.4767 2.70051 29.4723H11.6537ZM18.3208 16.3691C18.6994 16.7468 18.9574 17.2283 19.0619 17.7527C19.1665 18.2772 19.113 18.8208 18.9083 19.3148C18.7035 19.8088 18.3567 20.2309 17.9118 20.5275C17.4668 20.8242 16.9439 20.982 16.4091 20.9811C15.6915 20.9794 15.004 20.6929 14.4974 20.1846L8.1967 13.86C7.68987 13.3524 7.40365 12.6655 7.40015 11.9482C7.39924 11.4135 7.55711 10.8905 7.85376 10.4456C8.15041 10.0007 8.57248 9.65387 9.06647 9.44911C9.56045 9.24435 10.1041 9.19087 10.6285 9.29544C11.153 9.40002 11.6345 9.65795 12.0122 10.0365L18.3208 16.3691ZM47.1559 34.8968C46.4383 34.8947 45.7507 34.6087 45.2432 34.1013C44.7358 33.5938 44.4498 32.9062 44.4477 32.1886C44.4477 31.4696 44.7327 30.7799 45.2404 30.2707C45.7481 29.7615 46.4369 29.4744 47.1559 29.4723H56.1012C56.4568 29.471 56.8092 29.5408 57.1375 29.6776C57.4658 29.8144 57.7634 30.0154 58.0129 30.2689C58.3876 30.648 58.6421 31.1293 58.7445 31.6524C58.8469 32.1756 58.7927 32.7173 58.5885 33.2097C58.3844 33.7021 58.0395 34.1234 57.5971 34.4207C57.1546 34.718 56.6342 34.8781 56.1012 34.8809L47.1559 34.8968ZM44.3043 19.7066C43.7973 20.2137 43.1096 20.4985 42.3926 20.4985C41.6755 20.4985 40.9879 20.2137 40.4809 19.7066C39.9738 19.1996 39.689 18.512 39.689 17.7949C39.689 17.0779 39.9738 16.3902 40.4809 15.8832L46.7816 9.51081C47.2886 9.00379 47.9762 8.71895 48.6933 8.71895C49.4103 8.71895 50.098 9.00379 50.605 9.51081C51.112 10.0178 51.3969 10.7055 51.3969 11.4225C51.3969 12.1396 51.112 12.8272 50.605 13.3342L44.3043 19.7066Z" fill="white"></path></g><defs><clipPath id="clip0_1_17192"><rect width="66.6075" height="97.88" fill="white"></rect></clipPath></defs></svg>