<svg width="30" height="30" viewBox="0 0 30 30" fill="none" xmlns="http://www.w3.org/2000/svg"><path d="M15 27.5C21.9036 27.5 27.5 21.9036 27.5 15C27.5 8.09644 21.9036 2.5 15 2.5C8.09644 2.5 2.5 8.09644 2.5 15C2.5 21.9036 8.09644 27.5 15 27.5Z" fill="#70B450"></path><path d="M13.2258 19.475C12.9758 19.475 12.7383 19.375 12.5633 19.2L9.02578 15.6625C8.66328 15.3 8.66328 14.7 9.02578 14.3375C9.38828 13.975 9.98828 13.975 10.3508 14.3375L13.2258 17.2125L19.6508 10.7875C20.0133 10.425 20.6133 10.425 20.9758 10.7875C21.3383 11.15 21.3383 11.75 20.9758 12.1125L13.8883 19.2C13.7133 19.375 13.4758 19.475 13.2258 19.475Z" fill="white"></path></svg>