<svg width="89" height="32" viewBox="0 0 89 32" fill="none" xmlns="http://www.w3.org/2000/svg"><g clip-path="url(#clip0_1_496)"><path d="M44.5256 9.44825V3.65961H45.5201V9.44825H44.5256Z" fill="white"></path><path d="M49.0953 9.44825V7.0242C49.0953 6.37009 48.8339 6.0409 48.3066 6.0409C47.7793 6.0409 47.4493 6.36154 47.4493 7.0071V9.44825H46.4805V5.22006H47.445V5.61765C47.5813 5.45547 47.7529 5.32649 47.9468 5.24054C48.1407 5.1546 48.3518 5.11396 48.5638 5.12173C48.7642 5.11545 48.9639 5.15014 49.1504 5.22367C49.3369 5.29719 49.5063 5.40799 49.6483 5.54925C49.804 5.72926 49.9221 5.93845 49.9957 6.16455C50.0693 6.39065 50.0969 6.62913 50.077 6.86601V9.46107L49.0953 9.44825Z" fill="white"></path><path d="M52.1603 9.55085C51.5044 9.55085 51.1743 9.19173 51.1743 8.46922V6.06655H50.5442V5.21151H51.1743V3.92894L52.1603 3.47577V5.22006H53.1419V6.0751H52.1603V8.26829C52.1603 8.53763 52.2803 8.67443 52.5161 8.67443C52.75 8.66909 52.9787 8.60434 53.1805 8.48632L53.0648 9.34137C52.7847 9.48328 52.4743 9.55517 52.1603 9.55085Z" fill="white"></path><path d="M55.5081 9.55084C55.2406 9.56378 54.9736 9.51759 54.726 9.4156C54.4785 9.31361 54.2567 9.15833 54.0764 8.96086C53.7031 8.50416 53.5149 7.92452 53.5491 7.33628C53.5127 6.74443 53.7026 6.16082 54.0806 5.70315C54.441 5.33866 54.9279 5.12611 55.4408 5.1094C55.9538 5.09269 56.4536 5.2731 56.837 5.61337C57.0203 5.81145 57.1609 6.04493 57.2501 6.29936C57.3393 6.55379 57.3752 6.82376 57.3557 7.09259C57.3578 7.29253 57.3478 7.4924 57.3257 7.69112H54.5136C54.5193 7.96138 54.6299 8.21887 54.8222 8.40936C54.9126 8.49806 55.0198 8.56794 55.1376 8.61491C55.2554 8.66189 55.3813 8.68502 55.5081 8.68297C55.6811 8.69021 55.8532 8.65501 56.0094 8.58048C56.1656 8.50595 56.3011 8.39434 56.404 8.25545L57.017 8.88391C56.8341 9.10361 56.6027 9.27814 56.341 9.39384C56.0792 9.50954 55.7942 9.56328 55.5081 9.55084ZM54.5222 6.90448H56.3955C56.3938 6.64722 56.2924 6.40056 56.1125 6.21617C55.9504 6.0603 55.7333 5.9743 55.5081 5.97676C55.2588 5.96712 55.0147 6.04929 54.8222 6.20762C54.7274 6.29648 54.6518 6.40378 54.6002 6.5229C54.5486 6.64203 54.5221 6.77044 54.5222 6.90021V6.90448Z" fill="white"></path><path d="M58.0244 9.44823V5.22004H59.0189V5.64756C59.0901 5.4816 59.2103 5.34118 59.3634 5.24496C59.5166 5.14874 59.6954 5.10128 59.8763 5.10888C60.166 5.10619 60.4467 5.20964 60.665 5.3996L60.5235 6.28457C60.3135 6.13553 60.0611 6.0576 59.8034 6.06226C59.6983 6.06026 59.5939 6.07971 59.4966 6.11941C59.3993 6.15911 59.3111 6.21822 59.2375 6.29312C59.0616 6.51247 58.9786 6.79167 59.0061 7.07121V9.4354L58.0244 9.44823Z" fill="white"></path><path d="M63.7558 9.44825V7.0242C63.7558 6.37009 63.4944 6.0409 62.9714 6.0409C62.4484 6.0409 62.1141 6.36154 62.1141 7.0071V9.44825H61.1453V5.22006H62.1141V5.61765C62.2504 5.45547 62.422 5.32649 62.6159 5.24054C62.8098 5.1546 63.0208 5.11396 63.2329 5.12173C63.4334 5.11494 63.6332 5.1494 63.8197 5.22295C64.0063 5.2965 64.1757 5.40757 64.3174 5.54925C64.4731 5.72926 64.5912 5.93845 64.6648 6.16455C64.7384 6.39065 64.766 6.62913 64.7461 6.86601V9.46107L63.7558 9.44825Z" fill="white"></path><path d="M68.021 9.44824V9.12332C67.8735 9.26915 67.6969 9.38253 67.5027 9.45616C67.3085 9.52979 67.1011 9.56205 66.8936 9.55084C66.4919 9.5702 66.0974 9.43906 65.7877 9.18317C65.6418 9.0538 65.5275 8.89303 65.4532 8.71303C65.3789 8.53304 65.3467 8.33855 65.359 8.1443C65.3471 7.94422 65.3856 7.74436 65.4709 7.5629C65.5563 7.38145 65.6858 7.22418 65.8477 7.10542C66.1873 6.86013 66.5988 6.73386 67.0179 6.7463C67.3674 6.73815 67.7131 6.82064 68.021 6.98571V6.75913C68.0316 6.65279 68.0191 6.54544 67.9843 6.44437C67.9495 6.3433 67.8933 6.25089 67.8195 6.17342C67.6402 6.03844 67.4178 5.9731 67.1937 5.98959C66.7421 5.98639 66.301 6.12554 65.9334 6.38718L65.6333 5.60482C66.1254 5.28377 66.7045 5.12111 67.2923 5.13882C67.4881 5.13548 67.6837 5.15412 67.8753 5.1944C68.0598 5.23571 68.2364 5.30645 68.3982 5.40388C68.5912 5.51855 68.7416 5.69257 68.8269 5.89981C68.935 6.17159 68.9861 6.4626 68.9769 6.75485V9.47816L68.021 9.44824ZM67.0694 8.6958C67.2464 8.69794 67.4218 8.66288 67.5843 8.5929C67.7468 8.52293 67.8927 8.4196 68.0124 8.28965V7.74243C67.7436 7.62073 67.4502 7.56223 67.1551 7.57142C66.9362 7.56143 66.7186 7.61015 66.525 7.7125C66.4491 7.7545 66.3864 7.81674 66.3441 7.89225C66.3017 7.96776 66.2812 8.05356 66.2849 8.14002C66.2818 8.21867 66.2981 8.29687 66.3325 8.36771C66.3669 8.43855 66.4183 8.49985 66.4821 8.54617C66.6564 8.65826 66.8625 8.71078 67.0694 8.6958Z" fill="white"></path><path d="M71.0431 9.55085C70.3872 9.55085 70.0571 9.19173 70.0571 8.46922V6.06655H69.427V5.21151H70.0571V3.92894L71.0216 3.47577V5.22006H71.999V6.0751H71.0216V8.26829C71.0216 8.53763 71.1374 8.67443 71.3774 8.67443C71.6113 8.66853 71.8398 8.60383 72.0419 8.48632L71.9219 9.34137C71.6499 9.48022 71.3486 9.55205 71.0431 9.55085Z" fill="white"></path><path d="M73.5294 4.47189C73.4773 4.5272 73.4141 4.571 73.3439 4.60045C73.2738 4.62991 73.1982 4.64437 73.1221 4.6429C73.0426 4.64688 72.9631 4.63366 72.8891 4.60415C72.8151 4.57463 72.7484 4.52952 72.6935 4.47189C72.6388 4.41928 72.5955 4.35616 72.566 4.28635C72.5365 4.21654 72.5216 4.14149 72.522 4.06575C72.5211 3.98993 72.5358 3.91473 72.5653 3.84485C72.5948 3.77497 72.6384 3.71191 72.6935 3.6596C72.7492 3.60342 72.8162 3.55954 72.8901 3.53082C72.9639 3.5021 73.043 3.48917 73.1221 3.49287C73.1978 3.49162 73.273 3.50576 73.343 3.53443C73.413 3.5631 73.4764 3.60569 73.5294 3.6596C73.5825 3.71294 73.6242 3.77638 73.6522 3.84616C73.6802 3.91593 73.6938 3.99061 73.6923 4.06575C73.6934 4.14082 73.6795 4.21536 73.6516 4.28507C73.6236 4.35478 73.5821 4.41827 73.5294 4.47189ZM72.6335 9.44825V5.22006H73.5937V9.44825H72.6335Z" fill="white"></path><path d="M76.243 9.55082C75.9779 9.56297 75.7133 9.5168 75.4681 9.41558C75.2229 9.31436 75.003 9.16057 74.8241 8.96512C74.4541 8.50851 74.2677 7.93094 74.3011 7.34481C74.267 6.75729 74.4534 6.17815 74.8241 5.72023C75.0096 5.53215 75.2308 5.38278 75.4747 5.28082C75.7187 5.17885 75.9806 5.12634 76.2451 5.12634C76.5096 5.12634 76.7715 5.17885 77.0155 5.28082C77.2595 5.38278 77.4806 5.53215 77.6661 5.72023C78.0398 6.17673 78.228 6.75652 78.1934 7.34481C78.2268 7.93094 78.0404 8.50851 77.6704 8.96512C77.4898 9.16077 77.2684 9.31459 77.0218 9.41578C76.7752 9.51697 76.5093 9.56306 76.243 9.55082ZM76.243 8.62737C76.3811 8.63214 76.5183 8.60352 76.643 8.54397C76.7676 8.48442 76.876 8.39569 76.9588 8.28536C77.1487 8.00966 77.2407 7.67863 77.2203 7.34481C77.24 7.00705 77.1481 6.67218 76.9588 6.39143C76.8747 6.28314 76.7668 6.19549 76.6435 6.13519C76.5202 6.07488 76.3846 6.04353 76.2472 6.04353C76.1099 6.04353 75.9743 6.07488 75.851 6.13519C75.7277 6.19549 75.6198 6.28314 75.5357 6.39143C75.3475 6.67112 75.2558 7.00425 75.2742 7.34053C75.2551 7.67226 75.3455 8.00108 75.5314 8.27681C75.6133 8.38732 75.7208 8.4765 75.8447 8.53679C75.9685 8.59707 76.1052 8.62668 76.243 8.6231V8.62737Z" fill="white"></path><path d="M81.5198 9.44824V7.02419C81.5198 6.37008 81.254 6.04089 80.731 6.04089C80.2081 6.04089 79.8737 6.36153 79.8737 7.00709V9.44824H78.9006V5.22005H79.8737V5.61764C80.0094 5.45472 80.1809 5.32521 80.375 5.23919C80.569 5.15318 80.7804 5.11298 80.9925 5.12172C81.1923 5.11553 81.3913 5.15027 81.5771 5.22381C81.7629 5.29734 81.9316 5.4081 82.0728 5.54924C82.2285 5.72925 82.3466 5.93844 82.4202 6.16454C82.4938 6.39064 82.5214 6.62912 82.5014 6.86601V9.46106L81.5198 9.44824Z" fill="white"></path><path d="M85.7765 9.44822V9.12331C85.6285 9.26848 85.4519 9.38144 85.2578 9.45503C85.0637 9.52862 84.8565 9.56124 84.6491 9.55083C84.2462 9.56961 83.8505 9.4386 83.5389 9.18316C83.3931 9.05379 83.2787 8.89301 83.2044 8.71302C83.1302 8.53303 83.0979 8.33853 83.1102 8.14428C83.0974 7.94454 83.1351 7.74478 83.2197 7.56329C83.3043 7.3818 83.4332 7.22437 83.5946 7.1054C83.9358 6.86009 84.3487 6.73386 84.7692 6.74629C85.1175 6.73419 85.4631 6.81225 85.7722 6.97287V6.74629C85.7822 6.63964 85.769 6.5321 85.7335 6.43101C85.698 6.32992 85.641 6.23768 85.5665 6.16058C85.3875 6.02489 85.1648 5.95947 84.9406 5.97675C84.489 5.97355 84.0479 6.1127 83.6803 6.37434L83.3846 5.59198C83.8753 5.27152 84.4529 5.10888 85.0392 5.12598C85.2364 5.12289 85.4334 5.14153 85.6265 5.18156C85.8107 5.22364 85.9872 5.29433 86.1495 5.39104C86.3428 5.50522 86.4934 5.67941 86.5781 5.88697C86.6888 6.15801 86.74 6.44958 86.7282 6.74201V9.46532L85.7765 9.44822ZM84.8292 8.69579C85.0066 8.69694 85.1824 8.66146 85.3454 8.59156C85.5085 8.52166 85.6553 8.41886 85.7765 8.28964V7.74241C85.5073 7.62186 85.2142 7.56341 84.9192 7.5714C84.7004 7.56245 84.483 7.6111 84.289 7.71249C84.2132 7.75449 84.1505 7.81673 84.1081 7.89224C84.0657 7.96775 84.0453 8.05354 84.049 8.14001C84.0467 8.21897 84.0639 8.29729 84.099 8.3681C84.1342 8.43891 84.1861 8.50004 84.2505 8.54615C84.4219 8.65759 84.6251 8.71013 84.8292 8.69579Z" fill="white"></path><path d="M87.5981 9.44825V3.93322L88.5669 3.47577V9.46107L87.5981 9.44825Z" fill="white"></path><path d="M44.4829 17.7208V11.9279H45.4774V16.7674H48.3023V17.7208H44.4829Z" fill="white"></path><path d="M51.3716 17.7208V17.3788C51.2242 17.5248 51.0477 17.6383 50.8534 17.712C50.6592 17.7856 50.4517 17.8178 50.2442 17.8063C49.8428 17.8236 49.449 17.6927 49.1382 17.4386C48.9924 17.3093 48.8781 17.1485 48.8038 16.9685C48.7295 16.7885 48.6973 16.594 48.7096 16.3998C48.6984 16.1996 48.7367 15.9998 48.8212 15.8179C48.9057 15.636 49.0337 15.4776 49.194 15.3566C49.5369 15.1151 49.9489 14.9906 50.3685 15.0018C50.7165 14.9883 51.0621 15.0649 51.3716 15.2241V15.0018C51.3813 14.8955 51.3684 14.7884 51.3337 14.6874C51.299 14.5865 51.2432 14.494 51.1701 14.4161C50.9915 14.2796 50.7685 14.2141 50.5443 14.2322C50.0927 14.229 49.6516 14.3682 49.284 14.6298L48.9839 13.8432C49.6542 13.4335 50.4513 13.2815 51.2259 13.4157C51.4105 13.4586 51.5871 13.5308 51.7488 13.6294C51.9428 13.7429 52.0936 13.9173 52.1775 14.1253C52.2865 14.3969 52.3375 14.6881 52.3275 14.9804V17.7037L51.3716 17.7208ZM50.4457 16.9684C50.6243 16.9678 50.8007 16.9294 50.9633 16.8557C51.1259 16.782 51.2709 16.6747 51.3887 16.5408V16.015C51.1201 15.8923 50.8268 15.8323 50.5314 15.8397C50.3125 15.8297 50.0949 15.8784 49.9013 15.9808C49.8251 16.0224 49.7621 16.0846 49.7197 16.1602C49.6772 16.2358 49.657 16.3218 49.6612 16.4083C49.6544 16.4905 49.669 16.573 49.7035 16.6479C49.7381 16.7228 49.7914 16.7875 49.8584 16.8358C50.0347 16.9419 50.2407 16.9884 50.4457 16.9684Z" fill="white"></path><path d="M55.0838 17.8191C54.9046 17.8268 54.7261 17.7921 54.563 17.7178C54.3998 17.6435 54.2566 17.5317 54.1451 17.3916V17.7165H53.1763V12.1844L54.1451 11.7568V13.826C54.2614 13.6871 54.408 13.5764 54.5736 13.5023C54.7392 13.4283 54.9196 13.3928 55.101 13.3985C55.3471 13.3896 55.5919 13.4388 55.8153 13.5421C56.0388 13.6454 56.2347 13.7998 56.387 13.9928C56.7311 14.4562 56.9038 15.0242 56.8757 15.6003C56.9099 16.1896 56.7354 16.7721 56.3827 17.2462C56.2264 17.4366 56.0274 17.5876 55.8018 17.6871C55.5761 17.7867 55.3302 17.8319 55.0838 17.8191ZM54.9681 16.8914C55.1015 16.8969 55.2341 16.8684 55.3534 16.8086C55.4727 16.7487 55.5746 16.6595 55.6497 16.5494C55.8226 16.264 55.9048 15.9331 55.8854 15.6003C55.9087 15.2638 55.8247 14.9286 55.6454 14.6426C55.5696 14.5352 55.4677 14.4486 55.3492 14.3911C55.2308 14.3335 55.0997 14.3068 54.9681 14.3134C54.8053 14.3057 54.6433 14.3412 54.4987 14.4163C54.3541 14.4914 54.2321 14.6034 54.1451 14.7409V16.5023C54.2355 16.634 54.3593 16.7394 54.5039 16.8077C54.6485 16.8761 54.8087 16.9049 54.9681 16.8914Z" fill="white"></path><path d="M59.3105 17.8191C59.0456 17.8316 58.7813 17.7851 58.5366 17.6831C58.2919 17.581 58.0731 17.426 57.8959 17.2292C57.523 16.7742 57.3362 16.1954 57.373 15.6088C57.3376 15.0212 57.5242 14.4416 57.8959 13.9843C58.0731 13.7874 58.2919 13.6324 58.5366 13.5303C58.7813 13.4283 59.0456 13.3818 59.3105 13.3943C59.5767 13.3817 59.8424 13.4281 60.0885 13.5301C60.3345 13.6321 60.5549 13.7872 60.7337 13.9843C61.107 14.441 61.2951 15.0206 61.261 15.6088C61.2989 16.2015 61.1105 16.7864 60.7337 17.2463C60.5533 17.4402 60.3322 17.5921 60.0862 17.6911C59.8403 17.7901 59.5754 17.8338 59.3105 17.8191ZM59.3105 16.8914C59.449 16.8974 59.5869 16.8697 59.7123 16.8109C59.8377 16.7521 59.947 16.6638 60.0307 16.5537C60.2188 16.2756 60.3106 15.9438 60.2922 15.6088C60.3097 15.2727 60.218 14.9398 60.0307 14.6597C59.9479 14.548 59.8391 14.4581 59.7136 14.3978C59.5881 14.3374 59.4498 14.3085 59.3105 14.3135C59.1691 14.3085 59.0286 14.3397 58.9026 14.4041C58.7766 14.4684 58.6691 14.5638 58.5904 14.6811C58.4008 14.9587 58.3075 15.2905 58.3246 15.6259C58.3056 15.9596 58.3975 16.2902 58.5861 16.5665C58.6716 16.6749 58.7822 16.7611 58.9083 16.8177C59.0345 16.8743 59.1725 16.8996 59.3105 16.8914Z" fill="white"></path><path d="M64.5402 17.7208V17.2933C64.409 17.4597 64.2397 17.5923 64.0465 17.6801C63.8534 17.7679 63.6419 17.8082 63.4299 17.7978C63.2288 17.8039 63.0286 17.7691 62.8415 17.6956C62.6543 17.6221 62.484 17.5114 62.3411 17.3702C62.1852 17.1904 62.067 16.9812 61.9934 16.755C61.9198 16.5289 61.8922 16.2904 61.9124 16.0535V13.4926H62.8769V15.9081C62.8769 16.5622 63.1427 16.8914 63.6743 16.8914C64.2058 16.8914 64.5316 16.5708 64.5316 15.9252V13.4926H65.5004V17.7208H64.5402Z" fill="white"></path><path d="M66.4136 17.7208V13.4926H67.3824V13.9201C67.4536 13.7541 67.5737 13.6137 67.7268 13.5175C67.88 13.4213 68.0589 13.3738 68.2397 13.3814C68.5298 13.3767 68.8112 13.4804 69.0285 13.6721L68.887 14.5571C68.6774 14.4068 68.425 14.3274 68.1668 14.3305C68.0617 14.3285 67.9573 14.348 67.86 14.3877C67.7627 14.4274 67.6746 14.4865 67.601 14.5614C67.4259 14.7811 67.3429 15.06 67.3695 15.3395V17.7079L66.4136 17.7208Z" fill="white"></path><path d="M46.8192 26.0874C46.4856 26.092 46.154 26.034 45.8418 25.9164C45.5703 25.8134 45.3235 25.6546 45.1174 25.4504C44.9217 25.2495 44.7596 25.0185 44.6373 24.7664C44.5077 24.511 44.414 24.2391 44.3587 23.9583C44.2522 23.3933 44.2522 22.8133 44.3587 22.2483C44.414 21.9674 44.5077 21.6956 44.6373 21.4402C44.7607 21.19 44.9227 20.9606 45.1174 20.7605C45.3233 20.5549 45.5701 20.3947 45.8418 20.2902C46.154 20.1726 46.4856 20.1146 46.8192 20.1192C47.2289 20.1094 47.6349 20.1989 48.0023 20.38C48.3261 20.5385 48.6014 20.7806 48.7997 21.0811C48.9898 21.3771 49.1343 21.6999 49.2283 22.0388C49.4098 22.7398 49.4098 23.4753 49.2283 24.1764C49.1343 24.5138 48.9898 24.8353 48.7997 25.1297C48.6003 25.4304 48.3254 25.6736 48.0023 25.8352C47.6337 26.0119 47.2281 26.0983 46.8192 26.0874ZM46.8192 25.1383C47.0679 25.1422 47.3128 25.0771 47.5265 24.9502C47.7275 24.8276 47.8919 24.6533 48.0023 24.4457C48.1159 24.2416 48.201 24.023 48.2552 23.7959C48.3103 23.5662 48.3376 23.3309 48.3367 23.0947C48.3386 22.8515 48.3112 22.609 48.2552 22.3722C48.2018 22.1449 48.1166 21.9262 48.0023 21.7224C47.8928 21.52 47.7297 21.3514 47.5308 21.235C47.3157 21.108 47.069 21.0443 46.8192 21.0512C46.6563 21.0465 46.4941 21.0739 46.3418 21.1319C46.1895 21.1898 46.0502 21.2772 45.9319 21.3889C45.7035 21.6002 45.5337 21.8668 45.4389 22.1627C45.3466 22.4648 45.3004 22.779 45.3017 23.0947C45.3017 23.3367 45.3305 23.5778 45.3875 23.813C45.4394 24.0421 45.5246 24.2625 45.6404 24.4671C45.7499 24.6695 45.913 24.8381 46.1119 24.9545C46.3256 25.0809 46.5708 25.1446 46.8192 25.1383Z" fill="white"></path><path d="M50.2012 25.9891V21.7651H51.17V22.1927C51.2412 22.0267 51.3613 21.8863 51.5144 21.7901C51.6676 21.6938 51.8465 21.6464 52.0273 21.654C52.317 21.6513 52.5977 21.7547 52.816 21.9447L52.6746 22.8297C52.4646 22.6806 52.2121 22.6027 51.9544 22.6074C51.8493 22.6054 51.7449 22.6248 51.6476 22.6645C51.5503 22.7042 51.4622 22.7633 51.3886 22.8382C51.2127 23.0576 51.1296 23.3368 51.1571 23.6163V25.9805L50.2012 25.9891Z" fill="white"></path><path d="M54.7581 27.6436L54.2437 26.8655C54.6618 26.8675 55.075 26.7754 55.4526 26.5962C55.5618 26.5289 55.6506 26.4333 55.7095 26.3196C55.7684 26.2059 55.7952 26.0783 55.7869 25.9506V25.7069C55.6643 25.8362 55.5148 25.9372 55.349 26.003C55.1831 26.0687 55.0049 26.0975 54.8267 26.0874C54.5824 26.0988 54.3388 26.0529 54.1154 25.9534C53.8921 25.8539 53.6952 25.7036 53.5407 25.5145C53.1887 25.0421 53.0169 24.4601 53.0563 23.8728C53.022 23.2941 53.1935 22.7218 53.5407 22.2568C53.693 22.0638 53.8889 21.9094 54.1124 21.8061C54.3358 21.7029 54.5806 21.6537 54.8267 21.6626C55.0015 21.6547 55.176 21.6825 55.3397 21.7443C55.5033 21.806 55.6526 21.9004 55.7784 22.0217V21.7652H56.7514V25.5701C56.7976 26.1111 56.6385 26.6496 56.3056 27.0793C55.8752 27.4479 55.3254 27.6484 54.7581 27.6436ZM54.9896 25.164C55.1487 25.1706 55.3068 25.1344 55.447 25.0592C55.5873 24.984 55.7047 24.8725 55.7869 24.7364V22.9836C55.7024 22.8496 55.5846 22.7398 55.4448 22.6649C55.3051 22.59 55.1482 22.5525 54.9896 22.5561C54.8546 22.5498 54.7201 22.577 54.5982 22.6352C54.4763 22.6934 54.3707 22.7808 54.2909 22.8895C54.1291 23.1806 54.0442 23.508 54.0442 23.8408C54.0442 24.1736 54.1291 24.5009 54.2909 24.792C54.3657 24.9085 54.4692 25.0038 54.5916 25.0689C54.7139 25.1341 54.851 25.1668 54.9896 25.164Z" fill="white"></path><path d="M60.0779 25.989V25.6513C59.93 25.7967 59.7534 25.9098 59.5593 25.9834C59.3652 26.057 59.1579 26.0895 58.9505 26.0788C58.5488 26.0982 58.1543 25.967 57.8445 25.7111C57.6993 25.5822 57.5853 25.4221 57.5111 25.2429C57.4368 25.0637 57.4043 24.8701 57.4159 24.6765C57.4082 24.4805 57.4482 24.2856 57.5326 24.1084C57.617 23.9312 57.7431 23.777 57.9003 23.659C58.2423 23.4158 58.6549 23.2912 59.0748 23.3042C59.4228 23.2908 59.7684 23.3674 60.0779 23.5265V23.3042C60.0874 23.1973 60.0744 23.0896 60.0397 22.988C60.005 22.8863 59.9494 22.7931 59.8764 22.7142C59.6963 22.5811 59.4741 22.5173 59.2506 22.5347C58.799 22.5315 58.3579 22.6706 57.9903 22.9323L57.6902 22.1456C58.3578 21.729 59.1575 21.5765 59.9322 21.7181C60.1166 21.7594 60.2932 21.8301 60.4551 21.9276C60.6473 22.0432 60.7975 22.2169 60.8838 22.4235C60.9919 22.6953 61.043 22.9863 61.0338 23.2785V25.9976L60.0779 25.989ZM59.1348 25.2366C59.3119 25.2393 59.4875 25.2045 59.6501 25.1345C59.8126 25.0644 59.9585 24.9608 60.0779 24.8305V24.2875C59.8092 24.1648 59.516 24.1048 59.2206 24.1122C59.0016 24.1022 58.7841 24.1509 58.5904 24.2533C58.5139 24.2945 58.4507 24.3566 58.4082 24.4323C58.3657 24.508 58.3456 24.5942 58.3504 24.6808C58.3472 24.7589 58.3635 24.8365 58.398 24.9066C58.4324 24.9768 58.4838 25.0373 58.5476 25.0827C58.7204 25.1984 58.9273 25.2526 59.1348 25.2366Z" fill="white"></path><path d="M64.5016 25.9891V23.565C64.5016 22.9109 64.2401 22.5817 63.7128 22.5817C63.1856 22.5817 62.8555 22.9066 62.8555 23.5522V25.9891H61.8867V21.7651H62.8555V22.1627C62.9907 21.999 63.1621 21.8687 63.3562 21.7819C63.5503 21.6952 63.7618 21.6543 63.9743 21.6625C64.1747 21.6573 64.374 21.6924 64.5604 21.7659C64.7467 21.8393 64.9163 21.9496 65.0589 22.0901C65.2141 22.2703 65.332 22.4795 65.4056 22.7056C65.4791 22.9316 65.507 23.17 65.4875 23.4068V26.0019L64.5016 25.9891Z" fill="white"></path><path d="M67.228 21.017C67.1729 21.074 67.106 21.1185 67.032 21.1473C66.958 21.1761 66.8786 21.1885 66.7993 21.1837C66.6458 21.1837 66.4986 21.1229 66.3901 21.0146C66.2816 20.9064 66.2206 20.7596 66.2206 20.6065C66.2154 20.527 66.2281 20.4474 66.2578 20.3734C66.2875 20.2994 66.3333 20.233 66.3921 20.179C66.445 20.1251 66.5085 20.0825 66.5785 20.0538C66.6485 20.0252 66.7236 20.011 66.7993 20.0123C66.8749 20.0117 66.9499 20.0261 67.0198 20.0547C67.0898 20.0833 67.1533 20.1255 67.2068 20.1788C67.2602 20.2321 67.3025 20.2955 67.3312 20.3653C67.3598 20.435 67.3743 20.5098 67.3737 20.5852C67.3803 20.6633 67.3708 20.7419 67.3457 20.8161C67.3207 20.8904 67.2806 20.9588 67.228 21.017ZM66.3321 25.989V21.7651H67.3051V25.989H66.3321Z" fill="white"></path><path d="M67.9309 25.989V25.211L70.1643 22.6245H68.111V21.7694H71.3688V22.5133L69.1526 25.134H71.3603V25.989H67.9309Z" fill="white"></path><path d="M74.5281 25.989V25.6513C74.3801 25.7965 74.2034 25.9094 74.0094 25.983C73.8153 26.0566 73.608 26.0892 73.4007 26.0788C72.999 26.0982 72.6045 25.967 72.2947 25.7111C72.1495 25.5822 72.0355 25.4221 71.9612 25.2429C71.887 25.0637 71.8545 24.8701 71.8661 24.6765C71.8584 24.4805 71.8984 24.2856 71.9828 24.1084C72.0672 23.9312 72.1933 23.777 72.3505 23.659C72.6925 23.4158 73.1051 23.2912 73.525 23.3042C73.873 23.2908 74.2185 23.3674 74.5281 23.5265V23.3042C74.5376 23.1973 74.5246 23.0896 74.4899 22.988C74.4552 22.8863 74.3996 22.7931 74.3266 22.7142C74.1465 22.5811 73.9243 22.5173 73.7008 22.5347C73.2477 22.5306 72.805 22.6698 72.4362 22.9323L72.1404 22.1456C72.808 21.729 73.6077 21.5765 74.3823 21.7181C74.5666 21.7602 74.7431 21.8309 74.9053 21.9276C75.0975 22.0432 75.2476 22.2169 75.334 22.4235C75.4421 22.6953 75.4932 22.9863 75.484 23.2785V25.9976L74.5281 25.989ZM73.5936 25.2366C73.7714 25.2399 73.9478 25.2054 74.1112 25.1353C74.2745 25.0653 74.421 24.9614 74.541 24.8305V24.2875C74.2721 24.1652 73.979 24.1053 73.6836 24.1122C73.4647 24.1022 73.2471 24.1509 73.0535 24.2533C72.9769 24.2945 72.9137 24.3566 72.8712 24.4323C72.8287 24.508 72.8087 24.5942 72.8134 24.6808C72.8102 24.7589 72.8266 24.8365 72.861 24.9066C72.8954 24.9768 72.9469 25.0373 73.0106 25.0827C73.1818 25.1984 73.3874 25.2526 73.5936 25.2366Z" fill="white"></path><path d="M77.559 26.0874C76.9031 26.0874 76.573 25.7282 76.573 25.0057V22.6073H75.9429V21.7523H76.5944V20.4697L77.5632 20.0037V21.7523H78.5449V22.6073H77.5632V24.8176C77.5632 25.087 77.6833 25.2195 77.919 25.2195C78.1533 25.2163 78.3825 25.1514 78.5835 25.0314L78.4677 25.8864C78.1864 26.0281 77.874 26.0972 77.559 26.0874Z" fill="white"></path><path d="M80.0237 21.017C79.9718 21.0712 79.9092 21.114 79.8398 21.1427C79.7705 21.1714 79.6958 21.1854 79.6207 21.1837C79.5444 21.1842 79.4687 21.1697 79.398 21.141C79.3273 21.1122 79.263 21.0698 79.2088 21.0162C79.1546 20.9625 79.1116 20.8987 79.0822 20.8284C79.0529 20.7581 79.0377 20.6827 79.0377 20.6065C79.0326 20.527 79.0453 20.4474 79.0749 20.3734C79.1046 20.2994 79.1505 20.233 79.2092 20.179C79.2647 20.1224 79.3316 20.0782 79.4055 20.0495C79.4794 20.0207 79.5587 20.008 79.6379 20.0123C79.713 20.0106 79.7876 20.0246 79.857 20.0533C79.9264 20.082 79.989 20.1248 80.0408 20.179C80.0981 20.234 80.1427 20.3006 80.1715 20.3744C80.2004 20.4483 80.2128 20.5274 80.208 20.6065C80.2066 20.6838 80.1896 20.76 80.1579 20.8305C80.1262 20.9011 80.0806 20.9645 80.0237 21.017ZM79.1664 25.989V21.7651H80.1394V25.989H79.1664Z" fill="white"></path><path d="M82.7585 26.0874C82.4932 26.101 82.2282 26.0556 81.9828 25.9542C81.7373 25.8529 81.5176 25.6983 81.3396 25.5017C80.9674 25.0463 80.7807 24.4678 80.8166 23.8814C80.7813 23.2937 80.9678 22.7141 81.3396 22.2568C81.5247 22.0689 81.7456 21.9196 81.9892 21.8177C82.2328 21.7158 82.4943 21.6633 82.7585 21.6633C83.0227 21.6633 83.2842 21.7158 83.5278 21.8177C83.7714 21.9196 83.9923 22.0689 84.1774 22.2568C84.5507 22.7135 84.7388 23.2931 84.7046 23.8814C84.7406 24.4678 84.5539 25.0463 84.1817 25.5017C84.0028 25.6984 83.7823 25.853 83.5362 25.9543C83.2901 26.0556 83.0244 26.1011 82.7585 26.0874ZM82.7585 25.1639C82.8966 25.1687 83.0339 25.1401 83.1585 25.0805C83.2832 25.021 83.3915 24.9323 83.4744 24.8219C83.6648 24.5465 83.7569 24.2153 83.7359 23.8814C83.7549 23.5437 83.6631 23.209 83.4744 22.928C83.3902 22.8197 83.2824 22.7321 83.159 22.6718C83.0357 22.6115 82.9001 22.5801 82.7628 22.5801C82.6254 22.5801 82.4899 22.6115 82.3665 22.6718C82.2432 22.7321 82.1353 22.8197 82.0512 22.928C81.8616 23.2072 81.7683 23.5403 81.7854 23.8771C81.7664 24.2108 81.8583 24.5414 82.0469 24.8177C82.1289 24.9282 82.2363 25.0174 82.3602 25.0776C82.4841 25.1379 82.6207 25.1675 82.7585 25.1639Z" fill="white"></path><path d="M88.0312 25.9891V23.565C88.0312 22.9109 87.7698 22.5817 87.2468 22.5817C86.7238 22.5817 86.3894 22.9066 86.3894 23.5522V25.9891H85.4207V21.7651H86.3894V22.1627C86.5247 21.999 86.696 21.8687 86.8901 21.7819C87.0842 21.6952 87.2957 21.6543 87.5083 21.6625C87.7087 21.6568 87.9081 21.6917 88.0946 21.7652C88.281 21.8387 88.4505 21.9492 88.5928 22.0901C88.7481 22.2703 88.8659 22.4795 88.9395 22.7056C89.0131 22.9316 89.0409 23.17 89.0215 23.4068V26.0019L88.0312 25.9891Z" fill="white"></path><path d="M8.91631 8.46495C8.7577 8.73857 8.69769 8.85827 8.69769 8.85827C8.63504 8.97897 8.53022 9.0726 8.40305 9.12144C8.27588 9.17028 8.13517 9.17096 8.00753 9.12334L7.57886 8.94805C7.45778 8.9022 7.3234 8.90617 7.20524 8.95907C7.08708 9.01198 6.99482 9.10951 6.94872 9.23022L6.6015 10.1408C6.55553 10.2616 6.5595 10.3956 6.61255 10.5135C6.6656 10.6313 6.76338 10.7233 6.88442 10.7693L7.3431 10.9446C7.46673 10.9964 7.56828 11.0898 7.63013 11.2085C7.69199 11.3272 7.71024 11.4637 7.68174 11.5944L7.48027 12.5863C7.45778 12.718 7.38883 12.8373 7.28585 12.9228C7.18288 13.0082 7.05266 13.0542 6.91871 13.0523H6.42575C6.29643 13.0488 6.17091 13.0961 6.07628 13.1841C5.98166 13.2721 5.9255 13.3936 5.91992 13.5225L5.86419 14.4845C5.86072 14.613 5.90833 14.7377 5.99666 14.8314C6.08498 14.9251 6.20686 14.9802 6.33573 14.9847H6.82869C6.96314 14.9928 7.09046 15.0477 7.18841 15.1399C7.28635 15.2321 7.34869 15.3557 7.36453 15.4891L7.49742 16.4938C7.51733 16.6254 7.48997 16.7598 7.42016 16.8732C7.35035 16.9867 7.24258 17.0719 7.1159 17.1137L6.64008 17.2591C6.57866 17.2781 6.52161 17.309 6.47219 17.35C6.42277 17.391 6.38196 17.4414 6.35209 17.4982C6.32222 17.555 6.30389 17.6171 6.29814 17.681C6.29239 17.7449 6.29933 17.8092 6.31858 17.8704L6.74725 19.2684L9.38784 18.4561C8.77079 16.9514 8.50763 15.3258 8.61856 13.7038C8.72948 12.0819 9.21155 10.5069 10.0277 9.09975C10.8439 7.69255 11.9726 6.49058 13.327 5.58608C14.6815 4.68158 16.2257 4.09862 17.8412 3.88192L17.2282 1.19281L15.8007 1.52628C15.738 1.53991 15.6786 1.56583 15.6261 1.60253C15.5735 1.63924 15.5288 1.686 15.4945 1.7401C15.4602 1.79419 15.437 1.85455 15.4263 1.91766C15.4156 1.98076 15.4175 2.04536 15.4321 2.10771L15.5435 2.59508C15.5698 2.72613 15.549 2.86223 15.4847 2.97951C15.4205 3.09678 15.3168 3.18772 15.192 3.23636L14.2532 3.62113C14.1299 3.67347 13.9922 3.68118 13.8638 3.64292C13.7354 3.60467 13.6245 3.52286 13.5502 3.41165L13.2887 2.98413C13.255 2.92964 13.2108 2.88233 13.1587 2.84489C13.1066 2.80745 13.0476 2.78061 12.9851 2.76592C12.9226 2.75123 12.8578 2.74897 12.7944 2.75927C12.731 2.76957 12.6703 2.79223 12.6157 2.82594L11.7884 3.35179C11.7338 3.38546 11.6863 3.42953 11.6488 3.48149C11.6112 3.53345 11.5843 3.59228 11.5696 3.65462C11.5549 3.71695 11.5526 3.78157 11.5629 3.84478C11.5732 3.90799 11.596 3.96855 11.6298 4.023L11.887 4.45053C11.9564 4.56552 11.9824 4.70142 11.9604 4.83384C11.9384 4.96625 11.8698 5.08652 11.7669 5.17304L11.0082 5.83142C10.9086 5.92103 10.7805 5.97272 10.6464 5.97741C10.5123 5.98211 10.3809 5.93949 10.2752 5.85707L9.89367 5.54926C9.84403 5.5087 9.7868 5.47837 9.72532 5.46006C9.66383 5.44174 9.59931 5.43579 9.53549 5.44255C9.47168 5.44931 9.40985 5.46865 9.3536 5.49945C9.29734 5.53024 9.24778 5.57188 9.2078 5.62194L8.59052 6.37437C8.54949 6.42396 8.5187 6.48116 8.49993 6.54267C8.48116 6.60418 8.47478 6.66879 8.48116 6.73277C8.48753 6.79675 8.50654 6.85884 8.53708 6.91546C8.56762 6.97208 8.60909 7.02212 8.65911 7.06268L9.04062 7.3705C9.14155 7.45679 9.20793 7.57644 9.22761 7.70756C9.24729 7.83868 9.21895 7.97248 9.14779 8.08446C9.14779 8.08446 9.07491 8.19134 8.91631 8.46495Z" fill="white"></path><path d="M19.0972 26.0703C19.4144 26.0703 19.5473 26.0703 19.5473 26.0703C19.6811 26.0649 19.8123 26.1077 19.917 26.191C20.0217 26.2742 20.0928 26.3922 20.1174 26.5234L20.1946 27.0065C20.205 27.0697 20.2278 27.1302 20.2617 27.1846C20.2955 27.239 20.3398 27.2862 20.3919 27.3235C20.4441 27.3608 20.5031 27.3875 20.5656 27.4021C20.6281 27.4166 20.6928 27.4188 20.7562 27.4084L21.7249 27.2459C21.7883 27.2356 21.8489 27.2128 21.9035 27.1791C21.958 27.1453 22.0053 27.1012 22.0427 27.0492C22.0802 26.9971 22.1069 26.9383 22.1216 26.876C22.1362 26.8136 22.1383 26.7491 22.1279 26.6859L22.0465 26.2242C22.0281 26.0921 22.0572 25.9579 22.1286 25.8452C22.2 25.7325 22.3091 25.6487 22.4365 25.6085L23.401 25.2836C23.5274 25.2377 23.666 25.2378 23.7923 25.284C23.9186 25.3302 24.0245 25.4194 24.0912 25.5359L24.3184 25.9634C24.3486 26.0203 24.3897 26.0707 24.4396 26.1116C24.4894 26.1526 24.5468 26.1833 24.6086 26.202C24.6704 26.2207 24.7353 26.227 24.7995 26.2205C24.8637 26.214 24.926 26.1949 24.9828 26.1643L25.8402 25.7069C25.9543 25.6461 26.0396 25.5426 26.0774 25.4192C26.1151 25.2958 26.1023 25.1625 26.0416 25.0485L25.8102 24.621C25.7499 24.5012 25.7337 24.3642 25.7642 24.2338C25.7948 24.1034 25.8702 23.9877 25.9773 23.907L26.7832 23.2914C26.8855 23.2046 27.0155 23.157 27.1497 23.157C27.284 23.157 27.4139 23.2046 27.5163 23.2914L27.8806 23.6291C27.9285 23.674 27.9849 23.7089 28.0465 23.7315C28.1082 23.7542 28.1738 23.7642 28.2394 23.7611C28.305 23.7579 28.3694 23.7415 28.4285 23.713C28.4876 23.6844 28.5404 23.6443 28.5836 23.5949L29.5867 22.5261L27.5505 20.6664C26.5528 21.954 25.2724 22.9964 23.8078 23.7136C22.3431 24.4309 20.7332 24.8038 19.1015 24.8038C17.4698 24.8038 15.8599 24.4309 14.3952 23.7136C12.9306 22.9964 11.6502 21.954 10.6525 20.6664L8.62915 22.5389L9.62795 23.6077C9.71742 23.7016 9.84016 23.7568 9.96993 23.7616C10.0997 23.7664 10.2262 23.7204 10.3224 23.6334L10.6825 23.2956C10.7852 23.2097 10.9149 23.1626 11.049 23.1626C11.183 23.1626 11.3128 23.2097 11.4155 23.2956L12.2214 23.9155C12.3292 23.9958 12.4052 24.1114 12.4358 24.2421C12.4664 24.3727 12.4496 24.51 12.3886 24.6295L12.1571 25.057C12.0974 25.1719 12.085 25.3054 12.1227 25.4292C12.1603 25.553 12.245 25.6573 12.3586 25.7197L13.2159 26.1771C13.2724 26.2077 13.3344 26.2267 13.3983 26.2331C13.4622 26.2395 13.5267 26.2332 13.5881 26.2145C13.6496 26.1958 13.7067 26.1651 13.7561 26.1242C13.8055 26.0833 13.8463 26.033 13.876 25.9762L14.1075 25.5487C14.1742 25.4322 14.2801 25.343 14.4064 25.2968C14.5327 25.2507 14.6713 25.2505 14.7977 25.2964L15.7622 25.6214C15.8872 25.6611 15.9945 25.743 16.0656 25.853C16.1368 25.9629 16.1674 26.0942 16.1523 26.2242L16.0751 26.7073C16.0647 26.7704 16.0668 26.835 16.0815 26.8973C16.0961 26.9597 16.1228 27.0185 16.1603 27.0705C16.1977 27.1225 16.245 27.1667 16.2995 27.2004C16.3541 27.2342 16.4147 27.2569 16.4781 27.2673L17.4426 27.4212C17.5059 27.4316 17.5707 27.4295 17.6332 27.4149C17.6956 27.4003 17.7547 27.3736 17.8068 27.3363C17.8589 27.299 17.9032 27.2518 17.9371 27.1974C17.9709 27.143 17.9937 27.0825 18.0041 27.0194L18.0813 26.5363C18.1059 26.405 18.177 26.287 18.2817 26.2038C18.3864 26.1206 18.5176 26.0777 18.6514 26.0831C18.6514 26.0831 18.78 26.0703 19.0972 26.0703Z" fill="white"></path><path d="M29.2908 8.4735C29.1365 8.19989 29.0593 8.08873 29.0593 8.08873C28.9884 7.97561 28.9606 7.8408 28.981 7.70893C29.0015 7.57706 29.0689 7.45693 29.1708 7.3705L29.5523 7.06268C29.6521 6.98085 29.7153 6.86296 29.7281 6.73478C29.741 6.6066 29.7024 6.47856 29.6209 6.37865L29.0122 5.62193C28.93 5.52153 28.8114 5.45756 28.6821 5.44395C28.5529 5.43034 28.4235 5.46819 28.322 5.54925L27.9448 5.86134C27.8383 5.94239 27.7067 5.98376 27.5729 5.97829C27.439 5.97283 27.3113 5.92087 27.2118 5.83142L26.4402 5.16021C26.333 5.07296 26.2613 4.94982 26.2384 4.81374C26.2156 4.67766 26.2431 4.53793 26.3159 4.4206L26.5774 3.99307C26.6376 3.88808 26.6569 3.76461 26.6316 3.6463C26.6063 3.52798 26.5382 3.42313 26.4402 3.35179L25.5829 2.83449C25.4716 2.76731 25.3385 2.74624 25.2119 2.77581C25.0853 2.80538 24.9753 2.88323 24.9056 2.99267L24.6484 3.4202C24.5741 3.53141 24.4631 3.61322 24.3348 3.65147C24.2064 3.68973 24.0686 3.68202 23.9453 3.62968L23.0108 3.23636C22.8868 3.18695 22.7841 3.09569 22.7207 2.9785C22.6572 2.8613 22.637 2.7256 22.6636 2.59508L22.7751 2.11198C22.8033 1.98561 22.7805 1.85322 22.7115 1.74356C22.6424 1.6339 22.5328 1.55582 22.4064 1.52627L20.979 1.19708L20.366 3.88192C21.9825 4.09983 23.5274 4.68435 24.8821 5.59059C26.2368 6.49682 27.3652 7.70066 28.1806 9.10964C28.9961 10.5186 29.4769 12.0953 29.5861 13.7185C29.6953 15.3416 29.4301 16.9682 28.8107 18.4732L31.4513 19.2898L31.88 17.8875C31.9174 17.7639 31.9041 17.6306 31.843 17.5168C31.7819 17.403 31.678 17.318 31.5542 17.2805L31.0784 17.1351C30.9514 17.0924 30.8435 17.0064 30.7737 16.8922C30.7039 16.7781 30.6767 16.6431 30.6969 16.5109L30.8297 15.5062C30.8465 15.3736 30.9093 15.251 31.0071 15.1597C31.105 15.0683 31.2318 15.014 31.3656 15.006H31.8585C31.9229 15.0044 31.9863 14.99 32.045 14.9636C32.1037 14.9372 32.1566 14.8995 32.2005 14.8525C32.2444 14.8055 32.2785 14.7503 32.3007 14.69C32.323 14.6298 32.333 14.5657 32.3301 14.5016L32.3001 13.5268C32.2979 13.4628 32.283 13.3998 32.2564 13.3416C32.2298 13.2833 32.1919 13.2308 32.1449 13.1871C32.0979 13.1434 32.0428 13.1094 31.9826 13.087C31.9224 13.0646 31.8584 13.0542 31.7942 13.0565H31.3056C31.1691 13.0608 31.0357 13.0161 30.9295 12.9306C30.8233 12.8451 30.7514 12.7244 30.7269 12.5905L30.5254 11.5944C30.4972 11.4632 30.5161 11.3262 30.5787 11.2075C30.6414 11.0887 30.7439 10.9957 30.8683 10.9446L31.327 10.7736C31.4473 10.7267 31.5444 10.6346 31.5973 10.517C31.6502 10.3995 31.6547 10.2659 31.6099 10.1451L31.2627 9.23449C31.2156 9.11341 31.1228 9.01557 31.0042 8.96201C30.8855 8.90845 30.7506 8.90344 30.6283 8.94805L30.1825 9.12334C30.0576 9.1675 29.9209 9.16547 29.7974 9.11761C29.6739 9.06974 29.5717 8.97923 29.5095 8.86255C29.5095 8.86255 29.4409 8.74712 29.2908 8.4735Z" fill="white"></path><path d="M8.00757 2.71049L8.04615 2.75324C8.35381 2.54245 8.69414 2.38357 9.05352 2.28297C11.7113 1.5177 11.5784 0.602806 12.7229 0.0555778L12.6715 0C12.3906 0.177976 12.0655 0.274217 11.7327 0.277889C8.61199 0.316366 8.8649 2.13333 8.00757 2.71049Z" fill="white"></path><path d="M4.92114 6.17342L4.97687 6.2119C5.32858 5.79775 5.79787 5.49964 6.32289 5.35685C8.80059 4.62579 9.66221 2.99266 10.3309 2.52666L10.3095 2.48818C9.39215 3.13802 8.30333 2.48818 6.45149 4.45478L6.38719 4.39921C7.89181 2.58651 7.93039 1.35525 8.62483 0.684043L8.59054 0.649841C4.20098 3.24917 6.1257 4.6771 4.92114 6.17342Z" fill="white"></path><path d="M5.10114 3.138C0.968786 7.23366 3.54079 8.26826 2.8935 10.3118H2.93637C3.22351 9.7464 3.70399 9.30208 4.29096 9.05918C6.03993 8.25544 6.59291 6.22043 7.29164 5.60053L7.25734 5.5706C6.40001 6.49405 4.98969 5.97674 3.828 8.26826L3.75084 8.22978C4.67676 6.23326 4.24381 4.42484 5.12686 3.18075C5.11963 3.16574 5.11102 3.15143 5.10114 3.138Z" fill="white"></path><path d="M2.10038 15.7328H2.1604C2.13589 15.3363 2.20405 14.9395 2.35953 14.5738C2.515 14.208 2.75353 13.8833 3.05631 13.6251C5.01961 11.8124 4.68525 10.205 5.49115 8.9566L5.43542 8.92667C4.80957 9.9912 2.52477 11.1541 2.43475 12.7744C2.40621 12.7764 2.37755 12.7764 2.34901 12.7744C2.68337 10.4316 1.44452 8.8711 2.11753 7.3876L2.05752 7.35339C-0.565928 12.7316 1.60313 12.6589 2.10038 15.7328Z" fill="white"></path><path d="M3.10788 20.846L3.17218 20.8246C2.63206 19.6104 3.53655 17.9474 3.60085 17.8704C4.79254 15.5618 4.39388 13.4755 4.66823 12.7402H4.6125C3.97379 14.322 2.20768 15.1813 2.46917 17.8448H2.38343C2.09622 16.186 0.21866 14.5999 0.291533 12.8H0.248666C-0.921597 19.1958 2.40915 19.153 3.10788 20.846Z" fill="white"></path><path d="M5.77849 25.5872L5.82564 25.5487C5.4915 25.1468 5.25028 24.6764 5.11914 24.171C4.988 23.6656 4.97016 23.1375 5.0669 22.6245C5.62416 19.4351 4.57822 18.858 4.57822 17.413H4.52678C4.47962 19.029 2.8121 20.8331 4.3253 23.1076L4.25243 23.1546C2.59348 20.7391 1.27747 21.3291 0.501584 18.9264C0.477547 18.9214 0.452748 18.9214 0.428711 18.9264C1.57754 25.9848 4.71968 23.8557 5.77849 25.5872Z" fill="white"></path><path d="M12.2557 28.6568V28.5884C10.0695 29.0159 8.95497 28.5884 8.55631 26.6047C8.00761 23.7873 6.06575 22.7014 5.86427 21.577C5.84598 21.5725 5.82685 21.5725 5.80855 21.577C6.23722 23.565 5.25128 24.7492 7.65611 27.1348L7.59181 27.1904C5.277 25.3648 3.68664 26.0361 2.76929 24.7663C2.7543 24.7768 2.74125 24.7898 2.73071 24.8048C5.57278 29.5546 8.64633 29.8111 12.2557 28.6568Z" fill="white"></path><path d="M6.85449 29.4734V29.4477C9.79515 31.1578 12.8558 28.7722 16.5938 28.6867C17.5283 28.6653 20.3232 28.8364 22.8867 31.8076L22.2051 32C21.3477 30.5336 20.0617 29.4734 18.8658 29.1784C15.4793 28.3233 15.4364 31.4827 11.6513 31.5297C8.86494 31.5682 6.96595 29.5845 6.85449 29.4734Z" fill="white"></path><path d="M30.1438 2.71049L30.1053 2.75324C29.8015 2.54371 29.4656 2.38488 29.1107 2.28297C26.4401 1.5177 26.5859 0.602806 25.4585 0.0555778L25.4928 0C25.7761 0.179508 26.1045 0.275813 26.4401 0.277889C29.5523 0.316366 29.3165 2.13333 30.1438 2.71049Z" fill="white"></path><path d="M33.2433 6.17342L33.1876 6.2119C32.8358 5.79775 32.3666 5.49964 31.8415 5.35685C29.3638 4.62579 28.5022 2.99266 27.8335 2.52666V2.48818C28.7508 3.13802 29.8397 2.48818 31.6915 4.45478L31.7558 4.39921C30.2512 2.58651 30.2126 1.35525 29.5182 0.684043L29.5525 0.649841C33.9634 3.24917 32.0387 4.6771 33.2433 6.17342Z" fill="white"></path><path d="M33.0631 3.138C37.1954 7.22511 34.6234 8.26826 35.2707 10.3033H35.2278C34.9407 9.73785 34.4602 9.29353 33.8732 9.05063C32.1243 8.24688 31.5713 6.21188 30.8726 5.59197L30.9069 5.56205C31.7642 6.4855 33.1745 5.96819 34.3362 8.25971L34.4134 8.22123C33.4874 6.22471 33.9204 4.41629 33.0373 3.1722C33.045 3.16014 33.0536 3.1487 33.0631 3.138Z" fill="white"></path><path d="M36.0639 15.7328H36.0038C36.0284 15.3363 35.9602 14.9395 35.8047 14.5738C35.6492 14.208 35.4107 13.8833 35.1079 13.6251C33.1446 11.8124 33.479 10.205 32.6731 8.9566L32.7331 8.9224C33.359 9.98693 35.6438 11.1498 35.7338 12.7701C35.7623 12.7722 35.791 12.7722 35.8195 12.7701C35.4852 10.4273 36.724 8.86682 36.051 7.38332L36.111 7.34912C38.7387 12.7316 36.5611 12.6589 36.0639 15.7328Z" fill="white"></path><path d="M35.0565 20.846L35.0136 20.8246C35.5537 19.6104 34.6493 17.9474 34.585 17.8704C33.3933 15.5618 33.7919 13.4755 33.5176 12.7402H33.5733C34.212 14.322 35.9781 15.1813 35.7166 17.8448H35.8024C36.081 16.1945 37.9457 14.6084 37.8986 12.8086H37.9286C39.086 19.1958 35.7552 19.153 35.0565 20.846Z" fill="white"></path><path d="M32.3858 25.5872L32.3386 25.5487C32.6728 25.1468 32.914 24.6764 33.0451 24.171C33.1763 23.6656 33.1941 23.1375 33.0974 22.6245C32.5401 19.4351 33.5775 18.858 33.6032 17.413H33.6546C33.7018 19.029 35.3693 20.8331 33.8561 23.1076L33.929 23.1546C35.5879 20.7391 36.9039 21.3291 37.6798 18.9264C37.7025 18.9221 37.7257 18.9221 37.7484 18.9264C36.5824 25.9848 33.4446 23.8557 32.3858 25.5872Z" fill="white"></path><path d="M25.9087 28.6568V28.5884C28.0949 29.0159 29.2094 28.5884 29.6081 26.6047C30.1654 23.7873 32.0858 22.7014 32.3087 21.577C32.327 21.5725 32.3461 21.5725 32.3644 21.577C31.9358 23.565 32.9217 24.7492 30.5169 27.1348L30.5812 27.1904C32.9131 25.3691 34.5035 26.0361 35.4423 24.7663L35.4808 24.8048C32.5916 29.5546 29.5224 29.8111 25.9087 28.6568Z" fill="white"></path><path d="M31.31 29.4734V29.4477C28.3693 31.1578 25.3087 28.7722 21.5707 28.6867C20.6362 28.6653 17.8413 28.8364 15.2778 31.8076L15.9594 32C16.8167 30.5336 18.1028 29.4734 19.2987 29.1784C22.6852 28.3233 22.7495 31.4827 26.5132 31.5297C29.291 31.5682 31.1986 29.5845 31.31 29.4734Z" fill="white"></path><path d="M23.6582 8.3324H23.6067C22.8793 8.35922 22.1753 8.59609 21.5803 9.01425C20.9852 9.43241 20.5247 10.0139 20.2546 10.688C19.9348 11.5354 19.789 12.4383 19.8259 13.343C19.789 14.2476 19.9348 15.1505 20.2546 15.9979C20.9104 17.4685 22.235 18.4732 23.6067 18.4732H23.6582C25.0342 18.4732 26.3545 17.4685 27.0104 15.9979C27.328 15.1499 27.4737 14.2475 27.439 13.343C27.4737 12.4384 27.328 11.536 27.0104 10.688C26.7407 10.0136 26.2803 9.4318 25.6852 9.01357C25.09 8.59534 24.3858 8.35868 23.6582 8.3324ZM25.7758 13.3985C25.7758 14.2792 25.7501 15.0359 25.7501 15.0359C25.6944 15.7542 25.6858 16.4767 25.3514 16.9683C25.1766 17.2306 24.9396 17.4459 24.6615 17.595C24.3833 17.7442 24.0726 17.8226 23.7568 17.8234H23.7311H23.6539C23.3381 17.8226 23.0274 17.7442 22.7492 17.595C22.4711 17.4459 22.2341 17.2306 22.0593 16.9683C21.7249 16.4767 21.712 15.7542 21.6563 15.0359C21.6563 15.0359 21.6563 14.2878 21.6563 13.4156V13.3985C21.6563 12.5221 21.6563 11.7611 21.6563 11.7611C21.712 11.0429 21.7249 10.3204 22.0593 9.82872C22.2346 9.56695 22.4717 9.35211 22.7497 9.20303C23.0278 9.05395 23.3382 8.9752 23.6539 8.97368H23.7311H23.7568C24.0719 8.97515 24.3817 9.05392 24.6591 9.20303C24.9364 9.35214 25.1727 9.56702 25.3471 9.82872C25.6858 10.3204 25.6944 11.0429 25.7501 11.7611C25.7501 11.7611 25.7501 12.5136 25.7758 13.3857V13.3985Z" fill="white"></path><path d="M24.6869 18.8965C24.5158 19.3222 24.2539 19.7059 23.9196 20.0209C23.6231 20.2272 23.2735 20.3444 22.9122 20.3586L19.53 20.5253H18.7841C18.7841 20.5253 18.214 20.4911 18.184 19.9653V8.14857C18.214 7.62272 18.7841 7.58852 18.7841 7.58852H19.53V6.90021H15.0076V7.58852H15.7534C15.9041 7.5948 16.0475 7.65477 16.1577 7.75753C16.2678 7.8603 16.3373 7.99904 16.3536 8.14857V19.9653C16.3373 20.1148 16.2678 20.2535 16.1577 20.3563C16.0475 20.4591 15.9041 20.519 15.7534 20.5253H15.0076V21.2136H19.53H24.4297L25.0298 19.0333V18.9563L24.6869 18.8965Z" fill="white"></path><path d="M14.0603 9.63208C14.086 9.20456 14.5618 9.17036 14.5618 9.17036H15.1834V8.5932H11.4111V9.17036H12.0327C12.1574 9.17479 12.2763 9.22391 12.3677 9.30872C12.459 9.39353 12.5166 9.50833 12.53 9.63208V17.1907C12.5216 17.3182 12.4661 17.4382 12.3743 17.5274C12.2825 17.6166 12.1608 17.6688 12.0327 17.6738H11.4111V18.2295H15.1834V17.6738H14.5618C14.436 17.6693 14.316 17.6197 14.2238 17.5341C14.1317 17.4485 14.0736 17.3326 14.0603 17.2078V9.63208Z" fill="white"></path><path d="M44.5256 9.44825V3.65961H45.5201V9.44825H44.5256Z" fill="white"></path><path d="M49.0953 9.44825V7.0242C49.0953 6.37009 48.8339 6.0409 48.3066 6.0409C47.7793 6.0409 47.4493 6.36154 47.4493 7.0071V9.44825H46.4805V5.22006H47.445V5.61765C47.5813 5.45547 47.7529 5.32649 47.9468 5.24054C48.1407 5.1546 48.3518 5.11396 48.5638 5.12173C48.7642 5.11545 48.9639 5.15014 49.1504 5.22367C49.3369 5.29719 49.5063 5.40799 49.6483 5.54925C49.804 5.72926 49.9221 5.93845 49.9957 6.16455C50.0693 6.39065 50.0969 6.62913 50.077 6.86601V9.46107L49.0953 9.44825Z" fill="white"></path><path d="M52.1603 9.55085C51.5044 9.55085 51.1743 9.19173 51.1743 8.46922V6.06655H50.5442V5.21151H51.1743V3.92894L52.1603 3.47577V5.22006H53.1419V6.0751H52.1603V8.26829C52.1603 8.53763 52.2803 8.67443 52.5161 8.67443C52.75 8.66909 52.9787 8.60434 53.1805 8.48632L53.0648 9.34137C52.7847 9.48328 52.4743 9.55517 52.1603 9.55085Z" fill="white"></path><path d="M55.5081 9.55084C55.2406 9.56378 54.9736 9.51759 54.726 9.4156C54.4785 9.31361 54.2567 9.15833 54.0764 8.96086C53.7031 8.50416 53.5149 7.92452 53.5491 7.33628C53.5127 6.74443 53.7026 6.16082 54.0806 5.70315C54.441 5.33866 54.9279 5.12611 55.4408 5.1094C55.9538 5.09269 56.4536 5.2731 56.837 5.61337C57.0203 5.81145 57.1609 6.04493 57.2501 6.29936C57.3393 6.55379 57.3752 6.82376 57.3557 7.09259C57.3578 7.29253 57.3478 7.4924 57.3257 7.69112H54.5136C54.5193 7.96138 54.6299 8.21887 54.8222 8.40936C54.9126 8.49806 55.0198 8.56794 55.1376 8.61491C55.2554 8.66189 55.3813 8.68502 55.5081 8.68297C55.6811 8.69021 55.8532 8.65501 56.0094 8.58048C56.1656 8.50595 56.3011 8.39434 56.404 8.25545L57.017 8.88391C56.8341 9.10361 56.6027 9.27814 56.341 9.39384C56.0792 9.50954 55.7942 9.56328 55.5081 9.55084ZM54.5222 6.90448H56.3955C56.3938 6.64722 56.2924 6.40056 56.1125 6.21617C55.9504 6.0603 55.7333 5.9743 55.5081 5.97676C55.2588 5.96712 55.0147 6.04929 54.8222 6.20762C54.7274 6.29648 54.6518 6.40378 54.6002 6.5229C54.5486 6.64203 54.5221 6.77044 54.5222 6.90021V6.90448Z" fill="white"></path><path d="M58.0244 9.44823V5.22004H59.0189V5.64756C59.0901 5.4816 59.2103 5.34118 59.3634 5.24496C59.5166 5.14874 59.6954 5.10128 59.8763 5.10888C60.166 5.10619 60.4467 5.20964 60.665 5.3996L60.5235 6.28457C60.3135 6.13553 60.0611 6.0576 59.8034 6.06226C59.6983 6.06026 59.5939 6.07971 59.4966 6.11941C59.3993 6.15911 59.3111 6.21822 59.2375 6.29312C59.0616 6.51247 58.9786 6.79167 59.0061 7.07121V9.4354L58.0244 9.44823Z" fill="white"></path><path d="M63.7558 9.44825V7.0242C63.7558 6.37009 63.4944 6.0409 62.9714 6.0409C62.4484 6.0409 62.1141 6.36154 62.1141 7.0071V9.44825H61.1453V5.22006H62.1141V5.61765C62.2504 5.45547 62.422 5.32649 62.6159 5.24054C62.8098 5.1546 63.0208 5.11396 63.2329 5.12173C63.4334 5.11494 63.6332 5.1494 63.8197 5.22295C64.0063 5.2965 64.1757 5.40757 64.3174 5.54925C64.4731 5.72926 64.5912 5.93845 64.6648 6.16455C64.7384 6.39065 64.766 6.62913 64.7461 6.86601V9.46107L63.7558 9.44825Z" fill="white"></path><path d="M68.021 9.44824V9.12332C67.8735 9.26915 67.6969 9.38253 67.5027 9.45616C67.3085 9.52979 67.1011 9.56205 66.8936 9.55084C66.4919 9.5702 66.0974 9.43906 65.7877 9.18317C65.6418 9.0538 65.5275 8.89303 65.4532 8.71303C65.3789 8.53304 65.3467 8.33855 65.359 8.1443C65.3471 7.94422 65.3856 7.74436 65.4709 7.5629C65.5563 7.38145 65.6858 7.22418 65.8477 7.10542C66.1873 6.86013 66.5988 6.73386 67.0179 6.7463C67.3674 6.73815 67.7131 6.82064 68.021 6.98571V6.75913C68.0316 6.65279 68.0191 6.54544 67.9843 6.44437C67.9495 6.3433 67.8933 6.25089 67.8195 6.17342C67.6402 6.03844 67.4178 5.9731 67.1937 5.98959C66.7421 5.98639 66.301 6.12554 65.9334 6.38718L65.6333 5.60482C66.1254 5.28377 66.7045 5.12111 67.2923 5.13882C67.4881 5.13548 67.6837 5.15412 67.8753 5.1944C68.0598 5.23571 68.2364 5.30645 68.3982 5.40388C68.5912 5.51855 68.7416 5.69257 68.8269 5.89981C68.935 6.17159 68.9861 6.4626 68.9769 6.75485V9.47816L68.021 9.44824ZM67.0694 8.6958C67.2464 8.69794 67.4218 8.66288 67.5843 8.5929C67.7468 8.52293 67.8927 8.4196 68.0124 8.28965V7.74243C67.7436 7.62073 67.4502 7.56223 67.1551 7.57142C66.9362 7.56143 66.7186 7.61015 66.525 7.7125C66.4491 7.7545 66.3864 7.81674 66.3441 7.89225C66.3017 7.96776 66.2812 8.05356 66.2849 8.14002C66.2818 8.21867 66.2981 8.29687 66.3325 8.36771C66.3669 8.43855 66.4183 8.49985 66.4821 8.54617C66.6564 8.65826 66.8625 8.71078 67.0694 8.6958Z" fill="white"></path><path d="M71.0431 9.55085C70.3872 9.55085 70.0571 9.19173 70.0571 8.46922V6.06655H69.427V5.21151H70.0571V3.92894L71.0216 3.47577V5.22006H71.999V6.0751H71.0216V8.26829C71.0216 8.53763 71.1374 8.67443 71.3774 8.67443C71.6113 8.66853 71.8398 8.60383 72.0419 8.48632L71.9219 9.34137C71.6499 9.48022 71.3486 9.55205 71.0431 9.55085Z" fill="white"></path><path d="M73.5294 4.47189C73.4773 4.5272 73.4141 4.571 73.3439 4.60045C73.2738 4.62991 73.1982 4.64437 73.1221 4.6429C73.0426 4.64688 72.9631 4.63366 72.8891 4.60415C72.8151 4.57463 72.7484 4.52952 72.6935 4.47189C72.6388 4.41928 72.5955 4.35616 72.566 4.28635C72.5365 4.21654 72.5216 4.14149 72.522 4.06575C72.5211 3.98993 72.5358 3.91473 72.5653 3.84485C72.5948 3.77497 72.6384 3.71191 72.6935 3.6596C72.7492 3.60342 72.8162 3.55954 72.8901 3.53082C72.9639 3.5021 73.043 3.48917 73.1221 3.49287C73.1978 3.49162 73.273 3.50576 73.343 3.53443C73.413 3.5631 73.4764 3.60569 73.5294 3.6596C73.5825 3.71294 73.6242 3.77638 73.6522 3.84616C73.6802 3.91593 73.6938 3.99061 73.6923 4.06575C73.6934 4.14082 73.6795 4.21536 73.6516 4.28507C73.6236 4.35478 73.5821 4.41827 73.5294 4.47189ZM72.6335 9.44825V5.22006H73.5937V9.44825H72.6335Z" fill="white"></path><path d="M76.243 9.55082C75.9779 9.56297 75.7133 9.5168 75.4681 9.41558C75.2229 9.31436 75.003 9.16057 74.8241 8.96512C74.4541 8.50851 74.2677 7.93094 74.3011 7.34481C74.267 6.75729 74.4534 6.17815 74.8241 5.72023C75.0096 5.53215 75.2308 5.38278 75.4747 5.28082C75.7187 5.17885 75.9806 5.12634 76.2451 5.12634C76.5096 5.12634 76.7715 5.17885 77.0155 5.28082C77.2595 5.38278 77.4806 5.53215 77.6661 5.72023C78.0398 6.17673 78.228 6.75652 78.1934 7.34481C78.2268 7.93094 78.0404 8.50851 77.6704 8.96512C77.4898 9.16077 77.2684 9.31459 77.0218 9.41578C76.7752 9.51697 76.5093 9.56306 76.243 9.55082ZM76.243 8.62737C76.3811 8.63214 76.5183 8.60352 76.643 8.54397C76.7676 8.48442 76.876 8.39569 76.9588 8.28536C77.1487 8.00966 77.2407 7.67863 77.2203 7.34481C77.24 7.00705 77.1481 6.67218 76.9588 6.39143C76.8747 6.28314 76.7668 6.19549 76.6435 6.13519C76.5202 6.07488 76.3846 6.04353 76.2472 6.04353C76.1099 6.04353 75.9743 6.07488 75.851 6.13519C75.7277 6.19549 75.6198 6.28314 75.5357 6.39143C75.3475 6.67112 75.2558 7.00425 75.2742 7.34053C75.2551 7.67226 75.3455 8.00108 75.5314 8.27681C75.6133 8.38732 75.7208 8.4765 75.8447 8.53679C75.9685 8.59707 76.1052 8.62668 76.243 8.6231V8.62737Z" fill="white"></path><path d="M81.5198 9.44824V7.02419C81.5198 6.37008 81.254 6.04089 80.731 6.04089C80.2081 6.04089 79.8737 6.36153 79.8737 7.00709V9.44824H78.9006V5.22005H79.8737V5.61764C80.0094 5.45472 80.1809 5.32521 80.375 5.23919C80.569 5.15318 80.7804 5.11298 80.9925 5.12172C81.1923 5.11553 81.3913 5.15027 81.5771 5.22381C81.7629 5.29734 81.9316 5.4081 82.0728 5.54924C82.2285 5.72925 82.3466 5.93844 82.4202 6.16454C82.4938 6.39064 82.5214 6.62912 82.5014 6.86601V9.46106L81.5198 9.44824Z" fill="white"></path><path d="M85.7765 9.44822V9.12331C85.6285 9.26848 85.4519 9.38144 85.2578 9.45503C85.0637 9.52862 84.8565 9.56124 84.6491 9.55083C84.2462 9.56961 83.8505 9.4386 83.5389 9.18316C83.3931 9.05379 83.2787 8.89301 83.2044 8.71302C83.1302 8.53303 83.0979 8.33853 83.1102 8.14428C83.0974 7.94454 83.1351 7.74478 83.2197 7.56329C83.3043 7.3818 83.4332 7.22437 83.5946 7.1054C83.9358 6.86009 84.3487 6.73386 84.7692 6.74629C85.1175 6.73419 85.4631 6.81225 85.7722 6.97287V6.74629C85.7822 6.63964 85.769 6.5321 85.7335 6.43101C85.698 6.32992 85.641 6.23768 85.5665 6.16058C85.3875 6.02489 85.1648 5.95947 84.9406 5.97675C84.489 5.97355 84.0479 6.1127 83.6803 6.37434L83.3846 5.59198C83.8753 5.27152 84.4529 5.10888 85.0392 5.12598C85.2364 5.12289 85.4334 5.14153 85.6265 5.18156C85.8107 5.22364 85.9872 5.29433 86.1495 5.39104C86.3428 5.50522 86.4934 5.67941 86.5781 5.88697C86.6888 6.15801 86.74 6.44958 86.7282 6.74201V9.46532L85.7765 9.44822ZM84.8292 8.69579C85.0066 8.69694 85.1824 8.66146 85.3454 8.59156C85.5085 8.52166 85.6553 8.41886 85.7765 8.28964V7.74241C85.5073 7.62186 85.2142 7.56341 84.9192 7.5714C84.7004 7.56245 84.483 7.6111 84.289 7.71249C84.2132 7.75449 84.1505 7.81673 84.1081 7.89224C84.0657 7.96775 84.0453 8.05354 84.049 8.14001C84.0467 8.21897 84.0639 8.29729 84.099 8.3681C84.1342 8.43891 84.1861 8.50004 84.2505 8.54615C84.4219 8.65759 84.6251 8.71013 84.8292 8.69579Z" fill="white"></path><path d="M87.5981 9.44825V3.93322L88.5669 3.47577V9.46107L87.5981 9.44825Z" fill="white"></path><path d="M44.4829 17.7208V11.9279H45.4774V16.7674H48.3023V17.7208H44.4829Z" fill="white"></path><path d="M51.3716 17.7208V17.3788C51.2242 17.5248 51.0477 17.6383 50.8534 17.712C50.6592 17.7856 50.4517 17.8178 50.2442 17.8063C49.8428 17.8236 49.449 17.6927 49.1382 17.4386C48.9924 17.3093 48.8781 17.1485 48.8038 16.9685C48.7295 16.7885 48.6973 16.594 48.7096 16.3998C48.6984 16.1996 48.7367 15.9998 48.8212 15.8179C48.9057 15.636 49.0337 15.4776 49.194 15.3566C49.5369 15.1151 49.9489 14.9906 50.3685 15.0018C50.7165 14.9883 51.0621 15.0649 51.3716 15.2241V15.0018C51.3813 14.8955 51.3684 14.7884 51.3337 14.6874C51.299 14.5865 51.2432 14.494 51.1701 14.4161C50.9915 14.2796 50.7685 14.2141 50.5443 14.2322C50.0927 14.229 49.6516 14.3682 49.284 14.6298L48.9839 13.8432C49.6542 13.4335 50.4513 13.2815 51.2259 13.4157C51.4105 13.4586 51.5871 13.5308 51.7488 13.6294C51.9428 13.7429 52.0936 13.9173 52.1775 14.1253C52.2865 14.3969 52.3375 14.6881 52.3275 14.9804V17.7037L51.3716 17.7208ZM50.4457 16.9684C50.6243 16.9678 50.8007 16.9294 50.9633 16.8557C51.1259 16.782 51.2709 16.6747 51.3887 16.5408V16.015C51.1201 15.8923 50.8268 15.8323 50.5314 15.8397C50.3125 15.8297 50.0949 15.8784 49.9013 15.9808C49.8251 16.0224 49.7621 16.0846 49.7197 16.1602C49.6772 16.2358 49.657 16.3218 49.6612 16.4083C49.6544 16.4905 49.669 16.573 49.7035 16.6479C49.7381 16.7228 49.7914 16.7875 49.8584 16.8358C50.0347 16.9419 50.2407 16.9884 50.4457 16.9684Z" fill="white"></path><path d="M55.0838 17.8191C54.9046 17.8268 54.7261 17.7921 54.563 17.7178C54.3998 17.6435 54.2566 17.5317 54.1451 17.3916V17.7165H53.1763V12.1844L54.1451 11.7568V13.826C54.2614 13.6871 54.408 13.5764 54.5736 13.5023C54.7392 13.4283 54.9196 13.3928 55.101 13.3985C55.3471 13.3896 55.5919 13.4388 55.8153 13.5421C56.0388 13.6454 56.2347 13.7998 56.387 13.9928C56.7311 14.4562 56.9038 15.0242 56.8757 15.6003C56.9099 16.1896 56.7354 16.7721 56.3827 17.2462C56.2264 17.4366 56.0274 17.5876 55.8018 17.6871C55.5761 17.7867 55.3302 17.8319 55.0838 17.8191ZM54.9681 16.8914C55.1015 16.8969 55.2341 16.8684 55.3534 16.8086C55.4727 16.7487 55.5746 16.6595 55.6497 16.5494C55.8226 16.264 55.9048 15.9331 55.8854 15.6003C55.9087 15.2638 55.8247 14.9286 55.6454 14.6426C55.5696 14.5352 55.4677 14.4486 55.3492 14.3911C55.2308 14.3335 55.0997 14.3068 54.9681 14.3134C54.8053 14.3057 54.6433 14.3412 54.4987 14.4163C54.3541 14.4914 54.2321 14.6034 54.1451 14.7409V16.5023C54.2355 16.634 54.3593 16.7394 54.5039 16.8077C54.6485 16.8761 54.8087 16.9049 54.9681 16.8914Z" fill="white"></path><path d="M59.3105 17.8191C59.0456 17.8316 58.7813 17.7851 58.5366 17.6831C58.2919 17.581 58.0731 17.426 57.8959 17.2292C57.523 16.7742 57.3362 16.1954 57.373 15.6088C57.3376 15.0212 57.5242 14.4416 57.8959 13.9843C58.0731 13.7874 58.2919 13.6324 58.5366 13.5303C58.7813 13.4283 59.0456 13.3818 59.3105 13.3943C59.5767 13.3817 59.8424 13.4281 60.0885 13.5301C60.3345 13.6321 60.5549 13.7872 60.7337 13.9843C61.107 14.441 61.2951 15.0206 61.261 15.6088C61.2989 16.2015 61.1105 16.7864 60.7337 17.2463C60.5533 17.4402 60.3322 17.5921 60.0862 17.6911C59.8403 17.7901 59.5754 17.8338 59.3105 17.8191ZM59.3105 16.8914C59.449 16.8974 59.5869 16.8697 59.7123 16.8109C59.8377 16.7521 59.947 16.6638 60.0307 16.5537C60.2188 16.2756 60.3106 15.9438 60.2922 15.6088C60.3097 15.2727 60.218 14.9398 60.0307 14.6597C59.9479 14.548 59.8391 14.4581 59.7136 14.3978C59.5881 14.3374 59.4498 14.3085 59.3105 14.3135C59.1691 14.3085 59.0286 14.3397 58.9026 14.4041C58.7766 14.4684 58.6691 14.5638 58.5904 14.6811C58.4008 14.9587 58.3075 15.2905 58.3246 15.6259C58.3056 15.9596 58.3975 16.2902 58.5861 16.5665C58.6716 16.6749 58.7822 16.7611 58.9083 16.8177C59.0345 16.8743 59.1725 16.8996 59.3105 16.8914Z" fill="white"></path><path d="M64.5402 17.7208V17.2933C64.409 17.4597 64.2397 17.5923 64.0465 17.6801C63.8534 17.7679 63.6419 17.8082 63.4299 17.7978C63.2288 17.8039 63.0286 17.7691 62.8415 17.6956C62.6543 17.6221 62.484 17.5114 62.3411 17.3702C62.1852 17.1904 62.067 16.9812 61.9934 16.755C61.9198 16.5289 61.8922 16.2904 61.9124 16.0535V13.4926H62.8769V15.9081C62.8769 16.5622 63.1427 16.8914 63.6743 16.8914C64.2058 16.8914 64.5316 16.5708 64.5316 15.9252V13.4926H65.5004V17.7208H64.5402Z" fill="white"></path><path d="M66.4136 17.7208V13.4926H67.3824V13.9201C67.4536 13.7541 67.5737 13.6137 67.7268 13.5175C67.88 13.4213 68.0589 13.3738 68.2397 13.3814C68.5298 13.3767 68.8112 13.4804 69.0285 13.6721L68.887 14.5571C68.6774 14.4068 68.425 14.3274 68.1668 14.3305C68.0617 14.3285 67.9573 14.348 67.86 14.3877C67.7627 14.4274 67.6746 14.4865 67.601 14.5614C67.4259 14.7811 67.3429 15.06 67.3695 15.3395V17.7079L66.4136 17.7208Z" fill="white"></path><path d="M46.8192 26.0874C46.4856 26.092 46.154 26.034 45.8418 25.9164C45.5703 25.8134 45.3235 25.6546 45.1174 25.4504C44.9217 25.2495 44.7596 25.0185 44.6373 24.7664C44.5077 24.511 44.414 24.2391 44.3587 23.9583C44.2522 23.3933 44.2522 22.8133 44.3587 22.2483C44.414 21.9674 44.5077 21.6956 44.6373 21.4402C44.7607 21.19 44.9227 20.9606 45.1174 20.7605C45.3233 20.5549 45.5701 20.3947 45.8418 20.2902C46.154 20.1726 46.4856 20.1146 46.8192 20.1192C47.2289 20.1094 47.6349 20.1989 48.0023 20.38C48.3261 20.5385 48.6014 20.7806 48.7997 21.0811C48.9898 21.3771 49.1343 21.6999 49.2283 22.0388C49.4098 22.7398 49.4098 23.4753 49.2283 24.1764C49.1343 24.5138 48.9898 24.8353 48.7997 25.1297C48.6003 25.4304 48.3254 25.6736 48.0023 25.8352C47.6337 26.0119 47.2281 26.0983 46.8192 26.0874ZM46.8192 25.1383C47.0679 25.1422 47.3128 25.0771 47.5265 24.9502C47.7275 24.8276 47.8919 24.6533 48.0023 24.4457C48.1159 24.2416 48.201 24.023 48.2552 23.7959C48.3103 23.5662 48.3376 23.3309 48.3367 23.0947C48.3386 22.8515 48.3112 22.609 48.2552 22.3722C48.2018 22.1449 48.1166 21.9262 48.0023 21.7224C47.8928 21.52 47.7297 21.3514 47.5308 21.235C47.3157 21.108 47.069 21.0443 46.8192 21.0512C46.6563 21.0465 46.4941 21.0739 46.3418 21.1319C46.1895 21.1898 46.0502 21.2772 45.9319 21.3889C45.7035 21.6002 45.5337 21.8668 45.4389 22.1627C45.3466 22.4648 45.3004 22.779 45.3017 23.0947C45.3017 23.3367 45.3305 23.5778 45.3875 23.813C45.4394 24.0421 45.5246 24.2625 45.6404 24.4671C45.7499 24.6695 45.913 24.8381 46.1119 24.9545C46.3256 25.0809 46.5708 25.1446 46.8192 25.1383Z" fill="white"></path><path d="M50.2012 25.9891V21.7651H51.17V22.1927C51.2412 22.0267 51.3613 21.8863 51.5144 21.7901C51.6676 21.6938 51.8465 21.6464 52.0273 21.654C52.317 21.6513 52.5977 21.7547 52.816 21.9447L52.6746 22.8297C52.4646 22.6806 52.2121 22.6027 51.9544 22.6074C51.8493 22.6054 51.7449 22.6248 51.6476 22.6645C51.5503 22.7042 51.4622 22.7633 51.3886 22.8382C51.2127 23.0576 51.1296 23.3368 51.1571 23.6163V25.9805L50.2012 25.9891Z" fill="white"></path><path d="M54.7581 27.6436L54.2437 26.8655C54.6618 26.8675 55.075 26.7754 55.4526 26.5962C55.5618 26.5289 55.6506 26.4333 55.7095 26.3196C55.7684 26.2059 55.7952 26.0783 55.7869 25.9506V25.7069C55.6643 25.8362 55.5148 25.9372 55.349 26.003C55.1831 26.0687 55.0049 26.0975 54.8267 26.0874C54.5824 26.0988 54.3388 26.0529 54.1154 25.9534C53.8921 25.8539 53.6952 25.7036 53.5407 25.5145C53.1887 25.0421 53.0169 24.4601 53.0563 23.8728C53.022 23.2941 53.1935 22.7218 53.5407 22.2568C53.693 22.0638 53.8889 21.9094 54.1124 21.8061C54.3358 21.7029 54.5806 21.6537 54.8267 21.6626C55.0015 21.6547 55.176 21.6825 55.3397 21.7443C55.5033 21.806 55.6526 21.9004 55.7784 22.0217V21.7652H56.7514V25.5701C56.7976 26.1111 56.6385 26.6496 56.3056 27.0793C55.8752 27.4479 55.3254 27.6484 54.7581 27.6436ZM54.9896 25.164C55.1487 25.1706 55.3068 25.1344 55.447 25.0592C55.5873 24.984 55.7047 24.8725 55.7869 24.7364V22.9836C55.7024 22.8496 55.5846 22.7398 55.4448 22.6649C55.3051 22.59 55.1482 22.5525 54.9896 22.5561C54.8546 22.5498 54.7201 22.577 54.5982 22.6352C54.4763 22.6934 54.3707 22.7808 54.2909 22.8895C54.1291 23.1806 54.0442 23.508 54.0442 23.8408C54.0442 24.1736 54.1291 24.5009 54.2909 24.792C54.3657 24.9085 54.4692 25.0038 54.5916 25.0689C54.7139 25.1341 54.851 25.1668 54.9896 25.164Z" fill="white"></path><path d="M60.0779 25.989V25.6513C59.93 25.7967 59.7534 25.9098 59.5593 25.9834C59.3652 26.057 59.1579 26.0895 58.9505 26.0788C58.5488 26.0982 58.1543 25.967 57.8445 25.7111C57.6993 25.5822 57.5853 25.4221 57.5111 25.2429C57.4368 25.0637 57.4043 24.8701 57.4159 24.6765C57.4082 24.4805 57.4482 24.2856 57.5326 24.1084C57.617 23.9312 57.7431 23.777 57.9003 23.659C58.2423 23.4158 58.6549 23.2912 59.0748 23.3042C59.4228 23.2908 59.7684 23.3674 60.0779 23.5265V23.3042C60.0874 23.1973 60.0744 23.0896 60.0397 22.988C60.005 22.8863 59.9494 22.7931 59.8764 22.7142C59.6963 22.5811 59.4741 22.5173 59.2506 22.5347C58.799 22.5315 58.3579 22.6706 57.9903 22.9323L57.6902 22.1456C58.3578 21.729 59.1575 21.5765 59.9322 21.7181C60.1166 21.7594 60.2932 21.8301 60.4551 21.9276C60.6473 22.0432 60.7975 22.2169 60.8838 22.4235C60.9919 22.6953 61.043 22.9863 61.0338 23.2785V25.9976L60.0779 25.989ZM59.1348 25.2366C59.3119 25.2393 59.4875 25.2045 59.6501 25.1345C59.8126 25.0644 59.9585 24.9608 60.0779 24.8305V24.2875C59.8092 24.1648 59.516 24.1048 59.2206 24.1122C59.0016 24.1022 58.7841 24.1509 58.5904 24.2533C58.5139 24.2945 58.4507 24.3566 58.4082 24.4323C58.3657 24.508 58.3456 24.5942 58.3504 24.6808C58.3472 24.7589 58.3635 24.8365 58.398 24.9066C58.4324 24.9768 58.4838 25.0373 58.5476 25.0827C58.7204 25.1984 58.9273 25.2526 59.1348 25.2366Z" fill="white"></path><path d="M64.5016 25.9891V23.565C64.5016 22.9109 64.2401 22.5817 63.7128 22.5817C63.1856 22.5817 62.8555 22.9066 62.8555 23.5522V25.9891H61.8867V21.7651H62.8555V22.1627C62.9907 21.999 63.1621 21.8687 63.3562 21.7819C63.5503 21.6952 63.7618 21.6543 63.9743 21.6625C64.1747 21.6573 64.374 21.6924 64.5604 21.7659C64.7467 21.8393 64.9163 21.9496 65.0589 22.0901C65.2141 22.2703 65.332 22.4795 65.4056 22.7056C65.4791 22.9316 65.507 23.17 65.4875 23.4068V26.0019L64.5016 25.9891Z" fill="white"></path><path d="M67.228 21.017C67.1729 21.074 67.106 21.1185 67.032 21.1473C66.958 21.1761 66.8786 21.1885 66.7993 21.1837C66.6458 21.1837 66.4986 21.1229 66.3901 21.0146C66.2816 20.9064 66.2206 20.7596 66.2206 20.6065C66.2154 20.527 66.2281 20.4474 66.2578 20.3734C66.2875 20.2994 66.3333 20.233 66.3921 20.179C66.445 20.1251 66.5085 20.0825 66.5785 20.0538C66.6485 20.0252 66.7236 20.011 66.7993 20.0123C66.8749 20.0117 66.9499 20.0261 67.0198 20.0547C67.0898 20.0833 67.1533 20.1255 67.2068 20.1788C67.2602 20.2321 67.3025 20.2955 67.3312 20.3653C67.3598 20.435 67.3743 20.5098 67.3737 20.5852C67.3803 20.6633 67.3708 20.7419 67.3457 20.8161C67.3207 20.8904 67.2806 20.9588 67.228 21.017ZM66.3321 25.989V21.7651H67.3051V25.989H66.3321Z" fill="white"></path><path d="M67.9309 25.989V25.211L70.1643 22.6245H68.111V21.7694H71.3688V22.5133L69.1526 25.134H71.3603V25.989H67.9309Z" fill="white"></path><path d="M74.5281 25.989V25.6513C74.3801 25.7965 74.2034 25.9094 74.0094 25.983C73.8153 26.0566 73.608 26.0892 73.4007 26.0788C72.999 26.0982 72.6045 25.967 72.2947 25.7111C72.1495 25.5822 72.0355 25.4221 71.9612 25.2429C71.887 25.0637 71.8545 24.8701 71.8661 24.6765C71.8584 24.4805 71.8984 24.2856 71.9828 24.1084C72.0672 23.9312 72.1933 23.777 72.3505 23.659C72.6925 23.4158 73.1051 23.2912 73.525 23.3042C73.873 23.2908 74.2185 23.3674 74.5281 23.5265V23.3042C74.5376 23.1973 74.5246 23.0896 74.4899 22.988C74.4552 22.8863 74.3996 22.7931 74.3266 22.7142C74.1465 22.5811 73.9243 22.5173 73.7008 22.5347C73.2477 22.5306 72.805 22.6698 72.4362 22.9323L72.1404 22.1456C72.808 21.729 73.6077 21.5765 74.3823 21.7181C74.5666 21.7602 74.7431 21.8309 74.9053 21.9276C75.0975 22.0432 75.2476 22.2169 75.334 22.4235C75.4421 22.6953 75.4932 22.9863 75.484 23.2785V25.9976L74.5281 25.989ZM73.5936 25.2366C73.7714 25.2399 73.9478 25.2054 74.1112 25.1353C74.2745 25.0653 74.421 24.9614 74.541 24.8305V24.2875C74.2721 24.1652 73.979 24.1053 73.6836 24.1122C73.4647 24.1022 73.2471 24.1509 73.0535 24.2533C72.9769 24.2945 72.9137 24.3566 72.8712 24.4323C72.8287 24.508 72.8087 24.5942 72.8134 24.6808C72.8102 24.7589 72.8266 24.8365 72.861 24.9066C72.8954 24.9768 72.9469 25.0373 73.0106 25.0827C73.1818 25.1984 73.3874 25.2526 73.5936 25.2366Z" fill="white"></path><path d="M77.559 26.0874C76.9031 26.0874 76.573 25.7282 76.573 25.0057V22.6073H75.9429V21.7523H76.5944V20.4697L77.5632 20.0037V21.7523H78.5449V22.6073H77.5632V24.8176C77.5632 25.087 77.6833 25.2195 77.919 25.2195C78.1533 25.2163 78.3825 25.1514 78.5835 25.0314L78.4677 25.8864C78.1864 26.0281 77.874 26.0972 77.559 26.0874Z" fill="white"></path><path d="M80.0237 21.017C79.9718 21.0712 79.9092 21.114 79.8398 21.1427C79.7705 21.1714 79.6958 21.1854 79.6207 21.1837C79.5444 21.1842 79.4687 21.1697 79.398 21.141C79.3273 21.1122 79.263 21.0698 79.2088 21.0162C79.1546 20.9625 79.1116 20.8987 79.0822 20.8284C79.0529 20.7581 79.0377 20.6827 79.0377 20.6065C79.0326 20.527 79.0453 20.4474 79.0749 20.3734C79.1046 20.2994 79.1505 20.233 79.2092 20.179C79.2647 20.1224 79.3316 20.0782 79.4055 20.0495C79.4794 20.0207 79.5587 20.008 79.6379 20.0123C79.713 20.0106 79.7876 20.0246 79.857 20.0533C79.9264 20.082 79.989 20.1248 80.0408 20.179C80.0981 20.234 80.1427 20.3006 80.1715 20.3744C80.2004 20.4483 80.2128 20.5274 80.208 20.6065C80.2066 20.6838 80.1896 20.76 80.1579 20.8305C80.1262 20.9011 80.0806 20.9645 80.0237 21.017ZM79.1664 25.989V21.7651H80.1394V25.989H79.1664Z" fill="white"></path><path d="M82.7585 26.0874C82.4932 26.101 82.2282 26.0556 81.9828 25.9542C81.7373 25.8529 81.5176 25.6983 81.3396 25.5017C80.9674 25.0463 80.7807 24.4678 80.8166 23.8814C80.7813 23.2937 80.9678 22.7141 81.3396 22.2568C81.5247 22.0689 81.7456 21.9196 81.9892 21.8177C82.2328 21.7158 82.4943 21.6633 82.7585 21.6633C83.0227 21.6633 83.2842 21.7158 83.5278 21.8177C83.7714 21.9196 83.9923 22.0689 84.1774 22.2568C84.5507 22.7135 84.7388 23.2931 84.7046 23.8814C84.7406 24.4678 84.5539 25.0463 84.1817 25.5017C84.0028 25.6984 83.7823 25.853 83.5362 25.9543C83.2901 26.0556 83.0244 26.1011 82.7585 26.0874ZM82.7585 25.1639C82.8966 25.1687 83.0339 25.1401 83.1585 25.0805C83.2832 25.021 83.3915 24.9323 83.4744 24.8219C83.6648 24.5465 83.7569 24.2153 83.7359 23.8814C83.7549 23.5437 83.6631 23.209 83.4744 22.928C83.3902 22.8197 83.2824 22.7321 83.159 22.6718C83.0357 22.6115 82.9001 22.5801 82.7628 22.5801C82.6254 22.5801 82.4899 22.6115 82.3665 22.6718C82.2432 22.7321 82.1353 22.8197 82.0512 22.928C81.8616 23.2072 81.7683 23.5403 81.7854 23.8771C81.7664 24.2108 81.8583 24.5414 82.0469 24.8177C82.1289 24.9282 82.2363 25.0174 82.3602 25.0776C82.4841 25.1379 82.6207 25.1675 82.7585 25.1639Z" fill="white"></path><path d="M88.0312 25.9891V23.565C88.0312 22.9109 87.7698 22.5817 87.2468 22.5817C86.7238 22.5817 86.3894 22.9066 86.3894 23.5522V25.9891H85.4207V21.7651H86.3894V22.1627C86.5247 21.999 86.696 21.8687 86.8901 21.7819C87.0842 21.6952 87.2957 21.6543 87.5083 21.6625C87.7087 21.6568 87.9081 21.6917 88.0946 21.7652C88.281 21.8387 88.4505 21.9492 88.5928 22.0901C88.7481 22.2703 88.8659 22.4795 88.9395 22.7056C89.0131 22.9316 89.0409 23.17 89.0215 23.4068V26.0019L88.0312 25.9891Z" fill="white"></path><path d="M8.91631 8.46495C8.7577 8.73857 8.69769 8.85827 8.69769 8.85827C8.63504 8.97897 8.53022 9.0726 8.40305 9.12144C8.27588 9.17028 8.13517 9.17096 8.00753 9.12334L7.57886 8.94805C7.45778 8.9022 7.3234 8.90617 7.20524 8.95907C7.08708 9.01198 6.99482 9.10951 6.94872 9.23022L6.6015 10.1408C6.55553 10.2616 6.5595 10.3956 6.61255 10.5135C6.6656 10.6313 6.76338 10.7233 6.88442 10.7693L7.3431 10.9446C7.46673 10.9964 7.56828 11.0898 7.63013 11.2085C7.69199 11.3272 7.71024 11.4637 7.68174 11.5944L7.48027 12.5863C7.45778 12.718 7.38883 12.8373 7.28585 12.9228C7.18288 13.0082 7.05266 13.0542 6.91871 13.0523H6.42575C6.29643 13.0488 6.17091 13.0961 6.07628 13.1841C5.98166 13.2721 5.9255 13.3936 5.91992 13.5225L5.86419 14.4845C5.86072 14.613 5.90833 14.7377 5.99666 14.8314C6.08498 14.9251 6.20686 14.9802 6.33573 14.9847H6.82869C6.96314 14.9928 7.09046 15.0477 7.18841 15.1399C7.28635 15.2321 7.34869 15.3557 7.36453 15.4891L7.49742 16.4938C7.51733 16.6254 7.48997 16.7598 7.42016 16.8732C7.35035 16.9867 7.24258 17.0719 7.1159 17.1137L6.64008 17.2591C6.57866 17.2781 6.52161 17.309 6.47219 17.35C6.42277 17.391 6.38196 17.4414 6.35209 17.4982C6.32222 17.555 6.30389 17.6171 6.29814 17.681C6.29239 17.7449 6.29933 17.8092 6.31858 17.8704L6.74725 19.2684L9.38784 18.4561C8.77079 16.9514 8.50763 15.3258 8.61856 13.7038C8.72948 12.0819 9.21155 10.5069 10.0277 9.09975C10.8439 7.69255 11.9726 6.49058 13.327 5.58608C14.6815 4.68158 16.2257 4.09862 17.8412 3.88192L17.2282 1.19281L15.8007 1.52628C15.738 1.53991 15.6786 1.56583 15.6261 1.60253C15.5735 1.63924 15.5288 1.686 15.4945 1.7401C15.4602 1.79419 15.437 1.85455 15.4263 1.91766C15.4156 1.98076 15.4175 2.04536 15.4321 2.10771L15.5435 2.59508C15.5698 2.72613 15.549 2.86223 15.4847 2.97951C15.4205 3.09678 15.3168 3.18772 15.192 3.23636L14.2532 3.62113C14.1299 3.67347 13.9922 3.68118 13.8638 3.64292C13.7354 3.60467 13.6245 3.52286 13.5502 3.41165L13.2887 2.98413C13.255 2.92964 13.2108 2.88233 13.1587 2.84489C13.1066 2.80745 13.0476 2.78061 12.9851 2.76592C12.9226 2.75123 12.8578 2.74897 12.7944 2.75927C12.731 2.76957 12.6703 2.79223 12.6157 2.82594L11.7884 3.35179C11.7338 3.38546 11.6863 3.42953 11.6488 3.48149C11.6112 3.53345 11.5843 3.59228 11.5696 3.65462C11.5549 3.71695 11.5526 3.78157 11.5629 3.84478C11.5732 3.90799 11.596 3.96855 11.6298 4.023L11.887 4.45053C11.9564 4.56552 11.9824 4.70142 11.9604 4.83384C11.9384 4.96625 11.8698 5.08652 11.7669 5.17304L11.0082 5.83142C10.9086 5.92103 10.7805 5.97272 10.6464 5.97741C10.5123 5.98211 10.3809 5.93949 10.2752 5.85707L9.89367 5.54926C9.84403 5.5087 9.7868 5.47837 9.72532 5.46006C9.66383 5.44174 9.59931 5.43579 9.53549 5.44255C9.47168 5.44931 9.40985 5.46865 9.3536 5.49945C9.29734 5.53024 9.24778 5.57188 9.2078 5.62194L8.59052 6.37437C8.54949 6.42396 8.5187 6.48116 8.49993 6.54267C8.48116 6.60418 8.47478 6.66879 8.48116 6.73277C8.48753 6.79675 8.50654 6.85884 8.53708 6.91546C8.56762 6.97208 8.60909 7.02212 8.65911 7.06268L9.04062 7.3705C9.14155 7.45679 9.20793 7.57644 9.22761 7.70756C9.24729 7.83868 9.21895 7.97248 9.14779 8.08446C9.14779 8.08446 9.07491 8.19134 8.91631 8.46495Z" fill="white"></path><path d="M19.0972 26.0703C19.4144 26.0703 19.5473 26.0703 19.5473 26.0703C19.6811 26.0649 19.8123 26.1077 19.917 26.191C20.0217 26.2742 20.0928 26.3922 20.1174 26.5234L20.1946 27.0065C20.205 27.0697 20.2278 27.1302 20.2617 27.1846C20.2955 27.239 20.3398 27.2862 20.3919 27.3235C20.4441 27.3608 20.5031 27.3875 20.5656 27.4021C20.6281 27.4166 20.6928 27.4188 20.7562 27.4084L21.7249 27.2459C21.7883 27.2356 21.8489 27.2128 21.9035 27.1791C21.958 27.1453 22.0053 27.1012 22.0427 27.0492C22.0802 26.9971 22.1069 26.9383 22.1216 26.876C22.1362 26.8136 22.1383 26.7491 22.1279 26.6859L22.0465 26.2242C22.0281 26.0921 22.0572 25.9579 22.1286 25.8452C22.2 25.7325 22.3091 25.6487 22.4365 25.6085L23.401 25.2836C23.5274 25.2377 23.666 25.2378 23.7923 25.284C23.9186 25.3302 24.0245 25.4194 24.0912 25.5359L24.3184 25.9634C24.3486 26.0203 24.3897 26.0707 24.4396 26.1116C24.4894 26.1526 24.5468 26.1833 24.6086 26.202C24.6704 26.2207 24.7353 26.227 24.7995 26.2205C24.8637 26.214 24.926 26.1949 24.9828 26.1643L25.8402 25.7069C25.9543 25.6461 26.0396 25.5426 26.0774 25.4192C26.1151 25.2958 26.1023 25.1625 26.0416 25.0485L25.8102 24.621C25.7499 24.5012 25.7337 24.3642 25.7642 24.2338C25.7948 24.1034 25.8702 23.9877 25.9773 23.907L26.7832 23.2914C26.8855 23.2046 27.0155 23.157 27.1497 23.157C27.284 23.157 27.4139 23.2046 27.5163 23.2914L27.8806 23.6291C27.9285 23.674 27.9849 23.7089 28.0465 23.7315C28.1082 23.7542 28.1738 23.7642 28.2394 23.7611C28.305 23.7579 28.3694 23.7415 28.4285 23.713C28.4876 23.6844 28.5404 23.6443 28.5836 23.5949L29.5867 22.5261L27.5505 20.6664C26.5528 21.954 25.2724 22.9964 23.8078 23.7136C22.3431 24.4309 20.7332 24.8038 19.1015 24.8038C17.4698 24.8038 15.8599 24.4309 14.3952 23.7136C12.9306 22.9964 11.6502 21.954 10.6525 20.6664L8.62915 22.5389L9.62795 23.6077C9.71742 23.7016 9.84016 23.7568 9.96993 23.7616C10.0997 23.7664 10.2262 23.7204 10.3224 23.6334L10.6825 23.2956C10.7852 23.2097 10.9149 23.1626 11.049 23.1626C11.183 23.1626 11.3128 23.2097 11.4155 23.2956L12.2214 23.9155C12.3292 23.9958 12.4052 24.1114 12.4358 24.2421C12.4664 24.3727 12.4496 24.51 12.3886 24.6295L12.1571 25.057C12.0974 25.1719 12.085 25.3054 12.1227 25.4292C12.1603 25.553 12.245 25.6573 12.3586 25.7197L13.2159 26.1771C13.2724 26.2077 13.3344 26.2267 13.3983 26.2331C13.4622 26.2395 13.5267 26.2332 13.5881 26.2145C13.6496 26.1958 13.7067 26.1651 13.7561 26.1242C13.8055 26.0833 13.8463 26.033 13.876 25.9762L14.1075 25.5487C14.1742 25.4322 14.2801 25.343 14.4064 25.2968C14.5327 25.2507 14.6713 25.2505 14.7977 25.2964L15.7622 25.6214C15.8872 25.6611 15.9945 25.743 16.0656 25.853C16.1368 25.9629 16.1674 26.0942 16.1523 26.2242L16.0751 26.7073C16.0647 26.7704 16.0668 26.835 16.0815 26.8973C16.0961 26.9597 16.1228 27.0185 16.1603 27.0705C16.1977 27.1225 16.245 27.1667 16.2995 27.2004C16.3541 27.2342 16.4147 27.2569 16.4781 27.2673L17.4426 27.4212C17.5059 27.4316 17.5707 27.4295 17.6332 27.4149C17.6956 27.4003 17.7547 27.3736 17.8068 27.3363C17.8589 27.299 17.9032 27.2518 17.9371 27.1974C17.9709 27.143 17.9937 27.0825 18.0041 27.0194L18.0813 26.5363C18.1059 26.405 18.177 26.287 18.2817 26.2038C18.3864 26.1206 18.5176 26.0777 18.6514 26.0831C18.6514 26.0831 18.78 26.0703 19.0972 26.0703Z" fill="white"></path><path d="M29.2908 8.4735C29.1365 8.19989 29.0593 8.08873 29.0593 8.08873C28.9884 7.97561 28.9606 7.8408 28.981 7.70893C29.0015 7.57706 29.0689 7.45693 29.1708 7.3705L29.5523 7.06268C29.6521 6.98085 29.7153 6.86296 29.7281 6.73478C29.741 6.6066 29.7024 6.47856 29.6209 6.37865L29.0122 5.62193C28.93 5.52153 28.8114 5.45756 28.6821 5.44395C28.5529 5.43034 28.4235 5.46819 28.322 5.54925L27.9448 5.86134C27.8383 5.94239 27.7067 5.98376 27.5729 5.97829C27.439 5.97283 27.3113 5.92087 27.2118 5.83142L26.4402 5.16021C26.333 5.07296 26.2613 4.94982 26.2384 4.81374C26.2156 4.67766 26.2431 4.53793 26.3159 4.4206L26.5774 3.99307C26.6376 3.88808 26.6569 3.76461 26.6316 3.6463C26.6063 3.52798 26.5382 3.42313 26.4402 3.35179L25.5829 2.83449C25.4716 2.76731 25.3385 2.74624 25.2119 2.77581C25.0853 2.80538 24.9753 2.88323 24.9056 2.99267L24.6484 3.4202C24.5741 3.53141 24.4631 3.61322 24.3348 3.65147C24.2064 3.68973 24.0686 3.68202 23.9453 3.62968L23.0108 3.23636C22.8868 3.18695 22.7841 3.09569 22.7207 2.9785C22.6572 2.8613 22.637 2.7256 22.6636 2.59508L22.7751 2.11198C22.8033 1.98561 22.7805 1.85322 22.7115 1.74356C22.6424 1.6339 22.5328 1.55582 22.4064 1.52627L20.979 1.19708L20.366 3.88192C21.9825 4.09983 23.5274 4.68435 24.8821 5.59059C26.2368 6.49682 27.3652 7.70066 28.1806 9.10964C28.9961 10.5186 29.4769 12.0953 29.5861 13.7185C29.6953 15.3416 29.4301 16.9682 28.8107 18.4732L31.4513 19.2898L31.88 17.8875C31.9174 17.7639 31.9041 17.6306 31.843 17.5168C31.7819 17.403 31.678 17.318 31.5542 17.2805L31.0784 17.1351C30.9514 17.0924 30.8435 17.0064 30.7737 16.8922C30.7039 16.7781 30.6767 16.6431 30.6969 16.5109L30.8297 15.5062C30.8465 15.3736 30.9093 15.251 31.0071 15.1597C31.105 15.0683 31.2318 15.014 31.3656 15.006H31.8585C31.9229 15.0044 31.9863 14.99 32.045 14.9636C32.1037 14.9372 32.1566 14.8995 32.2005 14.8525C32.2444 14.8055 32.2785 14.7503 32.3007 14.69C32.323 14.6298 32.333 14.5657 32.3301 14.5016L32.3001 13.5268C32.2979 13.4628 32.283 13.3998 32.2564 13.3416C32.2298 13.2833 32.1919 13.2308 32.1449 13.1871C32.0979 13.1434 32.0428 13.1094 31.9826 13.087C31.9224 13.0646 31.8584 13.0542 31.7942 13.0565H31.3056C31.1691 13.0608 31.0357 13.0161 30.9295 12.9306C30.8233 12.8451 30.7514 12.7244 30.7269 12.5905L30.5254 11.5944C30.4972 11.4632 30.5161 11.3262 30.5787 11.2075C30.6414 11.0887 30.7439 10.9957 30.8683 10.9446L31.327 10.7736C31.4473 10.7267 31.5444 10.6346 31.5973 10.517C31.6502 10.3995 31.6547 10.2659 31.6099 10.1451L31.2627 9.23449C31.2156 9.11341 31.1228 9.01557 31.0042 8.96201C30.8855 8.90845 30.7506 8.90344 30.6283 8.94805L30.1825 9.12334C30.0576 9.1675 29.9209 9.16547 29.7974 9.11761C29.6739 9.06974 29.5717 8.97923 29.5095 8.86255C29.5095 8.86255 29.4409 8.74712 29.2908 8.4735Z" fill="white"></path><path d="M8.00757 2.71049L8.04615 2.75324C8.35381 2.54245 8.69414 2.38357 9.05352 2.28297C11.7113 1.5177 11.5784 0.602806 12.7229 0.0555778L12.6715 0C12.3906 0.177976 12.0655 0.274217 11.7327 0.277889C8.61199 0.316366 8.8649 2.13333 8.00757 2.71049Z" fill="white"></path><path d="M4.92114 6.17342L4.97687 6.2119C5.32858 5.79775 5.79787 5.49964 6.32289 5.35685C8.80059 4.62579 9.66221 2.99266 10.3309 2.52666L10.3095 2.48818C9.39215 3.13802 8.30333 2.48818 6.45149 4.45478L6.38719 4.39921C7.89181 2.58651 7.93039 1.35525 8.62483 0.684043L8.59054 0.649841C4.20098 3.24917 6.1257 4.6771 4.92114 6.17342Z" fill="white"></path><path d="M5.10114 3.138C0.968786 7.23366 3.54079 8.26826 2.8935 10.3118H2.93637C3.22351 9.7464 3.70399 9.30208 4.29096 9.05918C6.03993 8.25544 6.59291 6.22043 7.29164 5.60053L7.25734 5.5706C6.40001 6.49405 4.98969 5.97674 3.828 8.26826L3.75084 8.22978C4.67676 6.23326 4.24381 4.42484 5.12686 3.18075C5.11963 3.16574 5.11102 3.15143 5.10114 3.138Z" fill="white"></path><path d="M2.10038 15.7328H2.1604C2.13589 15.3363 2.20405 14.9395 2.35953 14.5738C2.515 14.208 2.75353 13.8833 3.05631 13.6251C5.01961 11.8124 4.68525 10.205 5.49115 8.9566L5.43542 8.92667C4.80957 9.9912 2.52477 11.1541 2.43475 12.7744C2.40621 12.7764 2.37755 12.7764 2.34901 12.7744C2.68337 10.4316 1.44452 8.8711 2.11753 7.3876L2.05752 7.35339C-0.565928 12.7316 1.60313 12.6589 2.10038 15.7328Z" fill="white"></path><path d="M3.10788 20.846L3.17218 20.8246C2.63206 19.6104 3.53655 17.9474 3.60085 17.8704C4.79254 15.5618 4.39388 13.4755 4.66823 12.7402H4.6125C3.97379 14.322 2.20768 15.1813 2.46917 17.8448H2.38343C2.09622 16.186 0.21866 14.5999 0.291533 12.8H0.248666C-0.921597 19.1958 2.40915 19.153 3.10788 20.846Z" fill="white"></path><path d="M5.77849 25.5872L5.82564 25.5487C5.4915 25.1468 5.25028 24.6764 5.11914 24.171C4.988 23.6656 4.97016 23.1375 5.0669 22.6245C5.62416 19.4351 4.57822 18.858 4.57822 17.413H4.52678C4.47962 19.029 2.8121 20.8331 4.3253 23.1076L4.25243 23.1546C2.59348 20.7391 1.27747 21.3291 0.501584 18.9264C0.477547 18.9214 0.452748 18.9214 0.428711 18.9264C1.57754 25.9848 4.71968 23.8557 5.77849 25.5872Z" fill="white"></path><path d="M12.2557 28.6568V28.5884C10.0695 29.0159 8.95497 28.5884 8.55631 26.6047C8.00761 23.7873 6.06575 22.7014 5.86427 21.577C5.84598 21.5725 5.82685 21.5725 5.80855 21.577C6.23722 23.565 5.25128 24.7492 7.65611 27.1348L7.59181 27.1904C5.277 25.3648 3.68664 26.0361 2.76929 24.7663C2.7543 24.7768 2.74125 24.7898 2.73071 24.8048C5.57278 29.5546 8.64633 29.8111 12.2557 28.6568Z" fill="white"></path><path d="M6.85449 29.4734V29.4477C9.79515 31.1578 12.8558 28.7722 16.5938 28.6867C17.5283 28.6653 20.3232 28.8364 22.8867 31.8076L22.2051 32C21.3477 30.5336 20.0617 29.4734 18.8658 29.1784C15.4793 28.3233 15.4364 31.4827 11.6513 31.5297C8.86494 31.5682 6.96595 29.5845 6.85449 29.4734Z" fill="white"></path><path d="M30.1438 2.71049L30.1053 2.75324C29.8015 2.54371 29.4656 2.38488 29.1107 2.28297C26.4401 1.5177 26.5859 0.602806 25.4585 0.0555778L25.4928 0C25.7761 0.179508 26.1045 0.275813 26.4401 0.277889C29.5523 0.316366 29.3165 2.13333 30.1438 2.71049Z" fill="white"></path><path d="M33.2433 6.17342L33.1876 6.2119C32.8358 5.79775 32.3666 5.49964 31.8415 5.35685C29.3638 4.62579 28.5022 2.99266 27.8335 2.52666V2.48818C28.7508 3.13802 29.8397 2.48818 31.6915 4.45478L31.7558 4.39921C30.2512 2.58651 30.2126 1.35525 29.5182 0.684043L29.5525 0.649841C33.9634 3.24917 32.0387 4.6771 33.2433 6.17342Z" fill="white"></path><path d="M33.0631 3.138C37.1954 7.22511 34.6234 8.26826 35.2707 10.3033H35.2278C34.9407 9.73785 34.4602 9.29353 33.8732 9.05063C32.1243 8.24688 31.5713 6.21188 30.8726 5.59197L30.9069 5.56205C31.7642 6.4855 33.1745 5.96819 34.3362 8.25971L34.4134 8.22123C33.4874 6.22471 33.9204 4.41629 33.0373 3.1722C33.045 3.16014 33.0536 3.1487 33.0631 3.138Z" fill="white"></path><path d="M36.0639 15.7328H36.0038C36.0284 15.3363 35.9602 14.9395 35.8047 14.5738C35.6492 14.208 35.4107 13.8833 35.1079 13.6251C33.1446 11.8124 33.479 10.205 32.6731 8.9566L32.7331 8.9224C33.359 9.98693 35.6438 11.1498 35.7338 12.7701C35.7623 12.7722 35.791 12.7722 35.8195 12.7701C35.4852 10.4273 36.724 8.86682 36.051 7.38332L36.111 7.34912C38.7387 12.7316 36.5611 12.6589 36.0639 15.7328Z" fill="white"></path><path d="M35.0565 20.846L35.0136 20.8246C35.5537 19.6104 34.6493 17.9474 34.585 17.8704C33.3933 15.5618 33.7919 13.4755 33.5176 12.7402H33.5733C34.212 14.322 35.9781 15.1813 35.7166 17.8448H35.8024C36.081 16.1945 37.9457 14.6084 37.8986 12.8086H37.9286C39.086 19.1958 35.7552 19.153 35.0565 20.846Z" fill="white"></path><path d="M32.3858 25.5872L32.3386 25.5487C32.6728 25.1468 32.914 24.6764 33.0451 24.171C33.1763 23.6656 33.1941 23.1375 33.0974 22.6245C32.5401 19.4351 33.5775 18.858 33.6032 17.413H33.6546C33.7018 19.029 35.3693 20.8331 33.8561 23.1076L33.929 23.1546C35.5879 20.7391 36.9039 21.3291 37.6798 18.9264C37.7025 18.9221 37.7257 18.9221 37.7484 18.9264C36.5824 25.9848 33.4446 23.8557 32.3858 25.5872Z" fill="white"></path><path d="M25.9087 28.6568V28.5884C28.0949 29.0159 29.2094 28.5884 29.6081 26.6047C30.1654 23.7873 32.0858 22.7014 32.3087 21.577C32.327 21.5725 32.3461 21.5725 32.3644 21.577C31.9358 23.565 32.9217 24.7492 30.5169 27.1348L30.5812 27.1904C32.9131 25.3691 34.5035 26.0361 35.4423 24.7663L35.4808 24.8048C32.5916 29.5546 29.5224 29.8111 25.9087 28.6568Z" fill="white"></path><path d="M31.31 29.4734V29.4477C28.3693 31.1578 25.3087 28.7722 21.5707 28.6867C20.6362 28.6653 17.8413 28.8364 15.2778 31.8076L15.9594 32C16.8167 30.5336 18.1028 29.4734 19.2987 29.1784C22.6852 28.3233 22.7495 31.4827 26.5132 31.5297C29.291 31.5682 31.1986 29.5845 31.31 29.4734Z" fill="white"></path><path d="M23.6582 8.3324H23.6067C22.8793 8.35922 22.1753 8.59609 21.5803 9.01425C20.9852 9.43241 20.5247 10.0139 20.2546 10.688C19.9348 11.5354 19.789 12.4383 19.8259 13.343C19.789 14.2476 19.9348 15.1505 20.2546 15.9979C20.9104 17.4685 22.235 18.4732 23.6067 18.4732H23.6582C25.0342 18.4732 26.3545 17.4685 27.0104 15.9979C27.328 15.1499 27.4737 14.2475 27.439 13.343C27.4737 12.4384 27.328 11.536 27.0104 10.688C26.7407 10.0136 26.2803 9.4318 25.6852 9.01357C25.09 8.59534 24.3858 8.35868 23.6582 8.3324ZM25.7758 13.3985C25.7758 14.2792 25.7501 15.0359 25.7501 15.0359C25.6944 15.7542 25.6858 16.4767 25.3514 16.9683C25.1766 17.2306 24.9396 17.4459 24.6615 17.595C24.3833 17.7442 24.0726 17.8226 23.7568 17.8234H23.7311H23.6539C23.3381 17.8226 23.0274 17.7442 22.7492 17.595C22.4711 17.4459 22.2341 17.2306 22.0593 16.9683C21.7249 16.4767 21.712 15.7542 21.6563 15.0359C21.6563 15.0359 21.6563 14.2878 21.6563 13.4156V13.3985C21.6563 12.5221 21.6563 11.7611 21.6563 11.7611C21.712 11.0429 21.7249 10.3204 22.0593 9.82872C22.2346 9.56695 22.4717 9.35211 22.7497 9.20303C23.0278 9.05395 23.3382 8.9752 23.6539 8.97368H23.7311H23.7568C24.0719 8.97515 24.3817 9.05392 24.6591 9.20303C24.9364 9.35214 25.1727 9.56702 25.3471 9.82872C25.6858 10.3204 25.6944 11.0429 25.7501 11.7611C25.7501 11.7611 25.7501 12.5136 25.7758 13.3857V13.3985Z" fill="white"></path><path d="M24.6869 18.8965C24.5158 19.3222 24.2539 19.7059 23.9196 20.0209C23.6231 20.2272 23.2735 20.3444 22.9122 20.3586L19.53 20.5253H18.7841C18.7841 20.5253 18.214 20.4911 18.184 19.9653V8.14857C18.214 7.62272 18.7841 7.58852 18.7841 7.58852H19.53V6.90021H15.0076V7.58852H15.7534C15.9041 7.5948 16.0475 7.65477 16.1577 7.75753C16.2678 7.8603 16.3373 7.99904 16.3536 8.14857V19.9653C16.3373 20.1148 16.2678 20.2535 16.1577 20.3563C16.0475 20.4591 15.9041 20.519 15.7534 20.5253H15.0076V21.2136H19.53H24.4297L25.0298 19.0333V18.9563L24.6869 18.8965Z" fill="white"></path><path d="M14.0603 9.63208C14.086 9.20456 14.5618 9.17036 14.5618 9.17036H15.1834V8.5932H11.4111V9.17036H12.0327C12.1574 9.17479 12.2763 9.22391 12.3677 9.30872C12.459 9.39353 12.5166 9.50833 12.53 9.63208V17.1907C12.5216 17.3182 12.4661 17.4382 12.3743 17.5274C12.2825 17.6166 12.1608 17.6688 12.0327 17.6738H11.4111V18.2295H15.1834V17.6738H14.5618C14.436 17.6693 14.316 17.6197 14.2238 17.5341C14.1317 17.4485 14.0736 17.3326 14.0603 17.2078V9.63208Z" fill="white"></path></g><defs><clipPath id="clip0_1_496"><rect width="89" height="32" fill="white"></rect></clipPath></defs></svg>